<svg xmlns="http://www.w3.org/2000/svg" version="1.1" xmlns:xlink="http://www.w3.org/1999/xlink" xmlns:svgjs="http://svgjs.dev/svgjs" width="1000" height="1125" viewBox="0 0 1000 1125"><g transform="matrix(1,0,0,1,1.7053025658242404e-13,0)"><svg viewBox="0 0 320 360" data-background-color="#ffffff" preserveAspectRatio="xMidYMid meet" height="1125" width="1000" xmlns="http://www.w3.org/2000/svg" xmlns:xlink="http://www.w3.org/1999/xlink"><g id="tight-bounds" transform="matrix(1,0,0,1,0,0)"><svg viewBox="0 0 320 360" height="360" width="320"><g><svg></svg></g><g><svg viewBox="0 0 320 360" height="360" width="320"><g><path xmlns="http://www.w3.org/2000/svg" d="M20.961 227.22l3.726 4.658-1.863-6.056c-0.466-2.795-3.726 0.466-1.863 1.398M25.153 224.425c1.397 2.329 2.795 4.658 2.795 6.987 0 3.261 2.795 4.658 5.123 5.589-3.261-3.726-5.124-13.974-7.918-12.576M204.017 26.929c7.918 0 15.371-0.932 23.756 0.931 20.495 5.124 37.729 15.371 49.374 29.811l32.606 52.169c1.397 13.042 4.192 27.482 3.726 43.319 3.261 0 2.795-4.658 6.521-5.59-3.726 9.316-5.59 20.961-6.521 34.469-2.329-7.453 0-18.632 0.466-24.687-3.261 5.124-5.124 1.397-5.124-0.932 0.466-3.726-1.397-3.261-2.795-4.658-5.124-4.658-8.384-9.782-12.11-17.7 2.329-6.055 2.795-14.905-4.658-19.563-2.329-1.397-5.124-3.726-6.521-7.453-1.863-5.124-5.124-11.179-4.193-19.097 0.466-2.329-6.987 5.124-11.179 1.863-18.166-12.576-36.332-27.016-58.224-39.127-11.645 0-20.029-4.192-24.221-9.316-3.726-4.658-0.932-10.713 4.658-11.179 3.261 0 6.987-0.932 9.782 0.932 0.466-1.863 2.329-4.192 4.657-4.192M157.904 16.215l0.932 0.466c4.658 0.932 6.987 7.453 12.11 5.124 0 3.261 0.466 6.521-0.466 8.85-1.397 3.726-5.59 3.726-8.85 3.726-31.208-1.863-49.374 11.179-68.471 22.358-5.124 3.261-10.713 5.59-14.906 9.782-20.029 18.632-41.921 35.866-47.045 70.335l-4.192 38.195c-0.466 4.192-5.124 8.384-4.192 13.508l3.26 22.824c-3.261-3.261-5.124 0.932-4.192 2.795 0.466 1.397 2.329 6.055 5.124 1.863 3.726 6.987 7.453 20.495 12.576 26.55 15.837 18.632 36.332 35.4 53.101 52.169 4.192-0.932 7.453-0.932 8.384-3.727 1.397 2.795-1.397 5.59-3.726 6.056 7.453 4.658 15.837 8.85 27.016 9.781 14.44 0.932 27.948 3.261 40.524 6.522 6.521-1.863 13.042-2.795 20.029-3.261 2.329 0 3.726-3.726 6.521-4.658l0.466-4.658c2.795 4.192 2.329-1.397 0.466-4.192 3.261 2.795 4.192 5.124 5.589 6.987 0-1.397 3.726-6.521 3.727-0.466l0.931-6.055c1.397-0.932 1.863 5.124 3.261 0.931 1.397-4.192 4.192-0.932 6.987-2.329-0.932 1.863-0.466 5.59 2.794 3.261l3.727-3.261c2.329 5.59 6.055 3.261 7.918 2.329 20.495-13.042 40.99-28.413 60.553-43.784l-0.466 6.055 2.329-7.453c2.329 2.329 4.192 0.466 5.124-0.931 2.795-4.658 6.521-9.316 12.577-13.508-7.453 20.029-16.303 35.866-27.482 48.908l-4.658 5.59c0 3.261-0.932 7.453-4.658 7.918-1.863 0.466-5.59-0.932-8.384 1.863-1.397 1.863 3.261 5.59-0.466 2.795-3.261-2.329-6.521 0-10.248 0.932-2.795 0.932 1.863 3.726 2.795 5.589 0.932 1.863 1.863 3.726 1.398 6.056l-5.124-5.59c-6.055 3.261-9.782 9.316-14.906 13.974-2.329 1.863-1.397 5.124-1.397 7.918-3.261 0-6.987-0.932-8.85 0.932-1.397 1.863-0.932 4.658-0.932 7.453-4.658-0.466-5.124-7.453-9.315-6.056-4.192 0.932-8.85 1.397-12.577 3.727 2.795 5.59-4.658 2.329-3.726 3.26-6.987-4.192-13.042-7.453-20.495-4.658-15.837-5.124-35.4-2.795-49.84-0.931 0-2.329 0.466-4.658-0.466-5.124-0.932 2.329-3.726 1.397-3.26 1.397-8.85-6.055-17.7-9.782-27.016-14.905-8.384 0.932-16.303-3.261-18.632-5.59-6.521-6.055-13.974-2.795-20.029-4.192-13.042-3.261-17.7-16.769-19.098-26.084-0.932-4.658-4.658-6.521-6.055-6.056-6.055-19.563-15.371-37.263-22.824-55.429-1.863-4.658-1.397-9.316-1.397-14.44 2.329 0.932 4.658 0.466 4.192-2.794-2.329-15.371-7.918-27.016-13.974-38.195 3.261-15.837 3.726-34.469 11.179-48.443 6.521-12.576 18.632-19.098 27.016-29.811 2.795-3.726 2.795-8.85 5.59-12.11 9.316-9.316 18.632-19.098 28.879-27.482 4.658-3.726 10.247 0 17.234-1.397 2.329-8.384 11.645-15.837 20.495-13.508 3.726 0.932 11.179-8.85 13.508-9.782 3.726-1.397 1.863 3.726 1.863 6.987 8.85-6.987 20.961-10.713 32.14-14.906" fill="#50a060" fill-rule="nonzero" stroke="none" stroke-width="1" stroke-linecap="butt" stroke-linejoin="miter" stroke-miterlimit="10" stroke-dasharray="" stroke-dashoffset="0" font-family="none" font-weight="none" font-size="none" text-anchor="none" style="mix-blend-mode: normal" data-fill-palette-color="tertiary"></path></g><g transform="matrix(1,0,0,1,64,154.4108064068383)"><svg viewBox="0 0 192 51.1783871863234" height="51.1783871863234" width="192"><g><svg viewBox="0 0 192 51.1783871863234" height="51.1783871863234" width="192"><g><svg viewBox="0 0 192 51.1783871863234" height="51.1783871863234" width="192"><g><svg viewBox="0 0 192 51.1783871863234" height="51.1783871863234" width="192"><g id="textblocktransform"><svg viewBox="0 0 192 51.1783871863234" height="51.1783871863234" width="192" id="textblock"><g><svg viewBox="0 0 192 29.0139411824565" height="29.0139411824565" width="192"><g transform="matrix(1,0,0,1,0,0)"><svg width="192" viewBox="3.2699999809265137 -57.7599983215332 479.8000183105469 72.50999450683594" height="29.0139411824565" data-palette-color="#50a060"><path d="M52.15 12.65L52.15 12.65Q52.15 13.09 51.83 13.43 51.51 13.77 51.07 13.99 50.63 14.21 50.17 14.4 49.71 14.6 49.37 14.75L49.37 14.75Q48.83 14.45 48.27 14.36 47.71 14.26 47.27 13.87L47.27 13.87 46.92 13.87Q46.14 13.87 45.7 14.06L45.7 14.06Q45.02 13.82 44.58 13.35 44.14 12.89 43.75 12.38 43.36 11.87 42.97 11.38 42.58 10.89 41.99 10.55L41.99 10.55Q41.11 8.11 40.43 5.62 39.75 3.13 39.4 0.54L39.4 0.54Q39.5 0.29 39.55 0 39.6-0.29 39.6-0.54L39.6-0.54Q39.6-0.73 39.53-0.95 39.45-1.17 39.21-1.22L39.21-1.22Q39.45-1.61 39.53-2.12 39.6-2.64 39.6-3.08L39.6-3.08Q39.6-4.05 39.4-4.69L39.4-4.69Q39.7-4.93 39.65-5.49 39.6-6.05 39.89-6.3L39.89-6.3Q39.65-7.13 39.65-7.91L39.65-7.91Q39.65-8.98 39.92-10.01 40.19-11.04 40.19-12.11L40.19-12.11Q40.19-12.35 40.16-12.6 40.14-12.84 40.09-13.09L40.09-13.09Q40.33-13.87 40.55-14.67 40.77-15.48 40.77-16.31L40.77-16.31Q40.77-16.89 40.58-17.29L40.58-17.29Q41.21-19.53 41.48-21.75 41.75-23.97 41.99-26.27L41.99-26.27Q41.94-26.37 41.89-26.42 41.85-26.46 41.85-26.56L41.85-26.56Q41.85-26.81 42.11-26.95 42.38-27.1 42.33-27.49L42.33-27.49Q41.75-26.9 41.38-26.12 41.02-25.34 40.7-24.56 40.38-23.78 40.01-23.02 39.65-22.27 39.06-21.68L39.06-21.68Q39.01-21.14 38.75-20.65 38.48-20.17 38.48-19.58L38.48-19.58Q38.43-19.58 38.38-19.6 38.33-19.63 38.23-19.63L38.23-19.63Q38.04-19.63 37.96-19.38 37.89-19.14 37.65-19.24L37.65-19.24Q36.52-17.04 35.18-14.94 33.84-12.84 31.69-11.57L31.69-11.57Q31.3-11.72 30.96-11.72L30.96-11.72Q30.32-11.72 29.71-11.35 29.1-10.99 28.91-10.99L28.91-10.99Q28.42-10.99 27.71-11.5 27-12.01 26.27-12.06L26.27-12.06Q25.49-12.6 24.98-13.16 24.46-13.72 23.44-13.82L23.44-13.82Q22.75-14.84 22.09-15.77 21.44-16.7 20.83-17.6 20.21-18.51 19.75-19.53 19.29-20.56 19.04-21.83L19.04-21.83Q19.09-21.92 19.09-22.02L19.09-22.02Q19.09-22.31 18.82-22.27 18.55-22.22 18.55-22.56L18.55-22.56 18.55-22.9Q18.55-23.29 18.43-23.61 18.31-23.93 18.36-24.32L18.36-24.32Q18.02-24.85 17.82-25.44 17.63-26.03 17.14-26.46L17.14-26.46 17.14-26.9Q17.14-27.2 17.11-27.47 17.09-27.73 16.97-27.95 16.85-28.17 16.6-28.22L16.6-28.22Q16.55-29.98 15.89-31.81 15.23-33.64 14.7-35.35L14.7-35.35Q14.31-34.08 14.11-32.79 13.92-31.49 13.92-30.18L13.92-30.18 13.92-29.35Q13.92-28.96 14.01-28.56L14.01-28.56Q13.87-28.32 13.6-28.22 13.33-28.13 13.28-27.83L13.28-27.83Q13.23-27.59 13.26-27.34 13.28-27.1 13.23-26.86L13.23-26.86Q13.13-25.68 12.94-24.61L12.94-24.61Q12.65-23 12.26-21.36 11.87-19.73 11.87-18.02L11.87-18.02Q11.87-17.92 11.89-17.75 11.91-17.58 11.91-17.48L11.91-17.48Q11.13-16.8 11.08-15.77 11.04-14.75 10.84-13.82L10.84-13.82Q10.6-12.45 10.25-11.11 9.91-9.77 9.67-8.35L9.67-8.35Q9.52-7.57 9.42-6.81 9.33-6.05 9.23-5.27L9.23-5.27Q9.18-4.83 8.91-4.54 8.64-4.25 8.54-3.86L8.54-3.86Q8.5-3.52 8.52-3.1 8.54-2.69 8.54-2.34L8.54-2.34Q8.54-1.76 8.45-1.25 8.35-0.73 7.86-0.34L7.86-0.34Q7.96 0.93 8.3 1.83 8.64 2.73 9.08 3.86L9.08 3.86 10.3 3.86 10.3 4.05Q10.3 4.54 10.47 4.93 10.64 5.32 11.18 5.27L11.18 5.27Q11.13 5.47 11.13 5.76L11.13 5.76Q11.13 6.2 11.3 6.57 11.47 6.93 11.57 7.37L11.57 7.37Q10.6 8.98 9.47 9.77 8.35 10.55 6.4 10.55L6.4 10.55 5.62 10.55Q5.37 9.77 5.03 9.03 4.69 8.3 4.37 7.57 4.05 6.84 3.83 6.08 3.61 5.32 3.61 4.49L3.61 4.49Q3.61 4.3 3.66 4.13 3.71 3.96 3.71 3.76L3.71 3.76Q3.71 3.52 3.52 3.47 3.32 3.42 3.32 2.98L3.32 2.98Q3.32 2.64 3.3 2.34 3.27 2.05 3.27 1.71L3.27 1.71Q3.27 0.1 3.52-1.49 3.76-3.08 3.86-4.69L3.86-4.69Q4.1-4.93 4.1-5.32 4.1-5.71 4.35-5.96L4.35-5.96 4.35-6.3Q4.35-7.18 4.54-8.06 4.74-8.94 4.98-9.77 5.22-10.6 5.42-11.47 5.62-12.35 5.62-13.23L5.62-13.23 5.62-14.01Q5.62-14.36 5.93-14.33 6.25-14.31 6.3-14.7L6.3-14.7Q6.4-15.38 6.42-16.04 6.45-16.7 6.54-17.38L6.54-17.38Q6.79-18.7 7.08-20.04 7.37-21.39 7.37-22.75L7.37-22.75 7.37-22.9Q7.37-23.05 7.62-23.51 7.86-23.97 7.86-24.41L7.86-24.41Q7.86-24.76 7.71-25.05L7.71-25.05Q7.76-25 7.91-25L7.91-25Q8.11-25 8.18-25.12 8.25-25.24 8.4-25.34L8.4-25.34Q8.25-25.54 8.25-25.73L8.25-25.73Q8.25-25.98 8.33-26.2 8.4-26.42 8.4-26.66L8.4-26.66Q8.4-27 8.06-27.15L8.06-27.15Q8.64-28.22 8.91-29.44 9.18-30.66 9.3-31.93 9.42-33.2 9.52-34.5 9.62-35.79 9.96-36.96L9.96-36.96Q9.86-37.26 9.84-37.6 9.81-37.94 9.81-38.23L9.81-38.23Q9.81-38.43 9.77-38.65 9.72-38.87 9.81-39.06L9.81-39.06Q9.81-39.16 9.86-39.31L9.86-39.31 9.96-39.6Q10.06-39.94 10.08-40.31 10.11-40.67 10.16-41.06L10.16-41.06Q10.25-42.19 10.23-43.36 10.21-44.53 10.3-45.7L10.3-45.7Q10.16-45.9 10.01-46.02 9.86-46.14 9.81-46.39L9.81-46.39Q10.21-47.07 10.67-47.68 11.13-48.29 11.91-48.63L11.91-48.63Q12.06-48.1 12.7-48.1L12.7-48.1Q12.99-48.1 13.43-48.24 13.87-48.39 14.01-48.63L14.01-48.63Q14.84-48.34 15.7-48.36 16.55-48.39 17.29-47.95L17.29-47.95Q17.43-47.22 17.68-46.44 17.92-45.65 18.36-45.02L18.36-45.02Q18.46-44.38 18.55-43.48 18.65-42.58 18.75-41.63 18.85-40.67 19.04-39.82 19.24-38.96 19.58-38.48L19.58-38.48Q19.63-37.6 19.87-36.72 20.12-35.84 20.41-35.03 20.7-34.23 20.92-33.54 21.14-32.86 21.14-32.42L21.14-32.42Q21.14-32.03 21.02-31.91 20.9-31.79 20.8-31.49L20.8-31.49Q21-30.96 21.34-30.59 21.68-30.22 22.07-29.74L22.07-29.74Q22.8-26.95 23.97-24.32 25.15-21.68 26.81-19.24L26.81-19.24Q27.25-19.19 27.51-18.99 27.78-18.8 28.37-18.9L28.37-18.9 28.37-18.55Q28.37-18.07 28.56-17.87L28.56-17.87Q29-17.58 29.59-17.58L29.59-17.58Q30.22-17.58 30.59-17.94 30.96-18.31 31.3-18.8 31.64-19.29 31.98-19.73 32.32-20.17 32.91-20.31L32.91-20.31 32.91-20.41Q32.91-20.8 33.08-21.07 33.25-21.34 33.25-21.68L33.25-21.68Q33.79-22.07 34.08-22.66 34.38-23.24 34.62-23.85 34.86-24.46 35.18-25 35.5-25.54 36.04-25.88L36.04-25.88Q36.72-27.98 37.7-29.79 38.67-31.59 39.75-33.45L39.75-33.45Q39.75-33.59 39.7-33.76 39.65-33.94 39.65-34.08L39.65-34.08Q39.65-34.13 39.75-34.52L39.75-34.52Q39.99-35.01 40.19-35.45 40.38-35.89 40.53-36.43L40.53-36.43Q41.02-37.94 41.43-39.4 41.85-40.87 42.68-42.19L42.68-42.19 42.68-43.41Q43.55-45.17 43.92-47.12 44.29-49.07 44.82-50.93L44.82-50.93Q44.92-51.46 45.19-52.03 45.46-52.59 45.85-52.83L45.85-52.83Q45.7-53.13 45.7-53.42L45.7-53.42Q45.7-53.81 45.83-54.13 45.95-54.44 46.04-54.79L46.04-54.79Q45.9-55.13 45.9-55.66L45.9-55.66Q45.9-56.35 46.29-56.96 46.68-57.57 47.46-57.76L47.46-57.76Q47.95-57.62 48.29-57.28 48.63-56.93 48.95-56.57 49.27-56.2 49.63-55.98 50-55.76 50.59-55.86L50.59-55.86Q50.98-55.13 51.12-54.32 51.27-53.52 51.27-52.69L51.27-52.69Q51.27-51.56 51.07-50.37 50.88-49.17 50.93-47.95L50.93-47.95Q50.54-47.17 50.37-46.26 50.2-45.36 50.05-44.43 49.9-43.51 49.71-42.63 49.51-41.75 49.02-40.97L49.02-40.97Q48.88-38.77 48.71-36.67 48.54-34.57 48.19-32.47L48.19-32.47 47.75-29.69Q47.66-29.35 47.56-28.93 47.46-28.52 47.46-28.22L47.46-28.22Q47.46-27.93 47.51-27.61 47.56-27.29 47.8-27.15L47.8-27.15Q47.46-26.66 47.31-25.98 47.17-25.29 47.02-24.51L47.02-24.51 46.78-23Q46.68-22.27 46.39-21.68L46.39-21.68 46.39-21.14Q46.39-19.19 45.7-17.14L45.7-17.14 45.7-16.89Q45.7-16.65 45.68-16.48 45.65-16.31 45.65-16.06L45.65-16.06Q45.65-15.72 45.85-15.53L45.85-15.53Q45.46-14.26 45.12-12.92 44.78-11.57 44.63-10.16L44.63-10.16Q44.48-8.25 44.58-6.27 44.68-4.3 44.09-2.44L44.09-2.44Q44.38-1.56 44.48-0.54L44.48-0.54 44.68 1.51Q44.78 2.54 45 3.49 45.21 4.44 45.85 5.08L45.85 5.08Q45.9 5.18 45.9 5.37L45.9 5.37Q45.9 5.76 45.7 5.96L45.7 5.96Q45.8 6.45 46.04 6.79 46.29 7.13 46.53 7.45 46.78 7.76 46.95 8.15 47.12 8.54 47.12 9.13L47.12 9.13Q47.51 9.67 48.34 9.96 49.17 10.25 50.02 10.55 50.88 10.84 51.51 11.3 52.15 11.77 52.15 12.65ZM91.11-3.56L91.11-3.56Q90.96-2.88 90.5-2.47 90.04-2.05 89.4-1.81 88.77-1.56 88.11-1.49 87.45-1.42 86.91-1.42L86.91-1.42Q86.67-1.42 86.45-1.44 86.23-1.46 85.98-1.46L85.98-1.46Q85.74-1.46 85.74-1.22 85.74-0.98 85.5-0.88L85.5-0.88Q85.25-0.98 85.01-1.03 84.76-1.07 84.52-1.07L84.52-1.07Q84.18-1.07 83.86-1.03 83.54-0.98 83.25-0.98L83.25-0.98Q82.86-0.98 82.69-1.07 82.52-1.17 82.39-1.29 82.27-1.42 82.15-1.56 82.03-1.71 81.78-1.81L81.78-1.81Q81.44-1.95 81.22-1.86 81-1.76 80.56-2.15L80.56-2.15Q79.98-2.64 79.56-3.34 79.15-4.05 78.76-4.83 78.37-5.62 77.93-6.4 77.49-7.18 76.9-7.76L76.9-7.76 76.51-7.76Q75.63-7.76 75.29-7.03L75.29-7.03Q75.05-7.18 74.8-7.4 74.56-7.62 74.27-7.76L74.27-7.76Q73.14-7.42 71.92-7.18 70.7-6.93 69.48-6.93L69.48-6.93 68.8-6.93Q68.5-6.93 68.16-7.03L68.16-7.03Q67.67-6.84 67.28-6.57 66.89-6.3 66.4-6.3L66.4-6.3Q66.11-6.3 65.72-6.49L65.72-6.49Q65.43-6.49 65.45-6.25 65.48-6.01 65.13-6.01L65.13-6.01 64.69-6.01Q64.01-6.01 63.35-5.96 62.69-5.91 62.01-5.91L62.01-5.91Q61.08-5.91 60.1-6.15L60.1-6.15Q59.86-6.01 59.57-6.01L59.57-6.01Q59.37-5.91 59.27-5.69 59.18-5.47 59.08-5.3 58.98-5.13 58.81-5 58.64-4.88 58.35-4.93L58.35-4.93Q58.25-4.35 57.86-4 57.47-3.66 57.47-2.98L57.47-2.98Q56.93-2.69 56.59-2.25 56.25-1.81 55.91-1.32 55.56-0.83 55.2-0.39 54.83 0.05 54.29 0.29L54.29 0.29Q54.05 0.59 54.15 1.22L54.15 1.22Q53.61 1.66 52.83 2 52.05 2.34 51.36 2.34L51.36 2.34Q49.95 2.34 49.41 0.83L49.41 0.83Q49.41 0.34 49.48-0.22 49.56-0.78 49.7-1.29 49.85-1.81 50.14-2.22 50.44-2.64 50.97-2.83L50.97-2.83Q50.97-3.27 50.68-3.44 50.39-3.61 50.44-4.05L50.44-4.05Q51.76-4.69 52.73-5.71 53.71-6.74 54.51-7.89 55.32-9.03 56.15-10.21 56.98-11.38 58.01-12.3L58.01-12.3 58.01-13.33Q59.47-14.89 59.91-16.85L59.91-16.85Q60.45-16.94 60.62-17.33 60.79-17.72 60.79-18.26L60.79-18.26Q61.03-18.26 61.11-18.48 61.18-18.7 61.52-18.6L61.52-18.6Q61.96-19.78 62.5-20.75 63.03-21.73 63.57-22.73 64.11-23.73 64.52-24.8 64.94-25.88 65.13-27.2L65.13-27.2Q65.82-27.25 65.89-27.86 65.96-28.47 66.06-28.96L66.06-28.96Q66.79-29.64 67.16-30.57 67.53-31.49 67.82-32.5 68.11-33.5 68.48-34.5 68.85-35.5 69.53-36.28L69.53-36.28 69.53-36.43Q69.53-36.67 69.33-36.74 69.14-36.82 69.14-37.06L69.14-37.06Q69.19-37.11 69.19-37.16L69.19-37.16Q69.77-37.4 70.07-37.96 70.36-38.53 70.94-38.77L70.94-38.77Q71.97-37.94 72.75-37.77 73.53-37.6 74.8-37.5L74.8-37.5Q75.44-36.82 75.51-35.86 75.58-34.91 75.83-33.98L75.83-33.98Q76.22-32.42 76.68-30.93 77.15-29.44 77.39-27.88L77.39-27.88Q77.54-26.95 77.93-26.12 78.32-25.29 78.46-24.41L78.46-24.41Q78.56-23.73 78.46-22.88 78.37-22.02 78.66-21.39L78.66-21.39 79-20.61Q79.25-20.07 79.42-19.48 79.59-18.9 79.73-18.31L79.73-18.31Q80.12-16.85 80.44-15.16 80.76-13.48 81.44-12.11L81.44-12.11Q81.69-11.62 82.2-11.43 82.71-11.23 83.35-11.16 83.98-11.08 84.59-11.11 85.2-11.13 85.64-11.13L85.64-11.13 86.13-11.13Q86.42-11.13 86.72-11.04L86.72-11.04Q86.91-10.64 86.91-10.35L86.91-10.35Q86.91-9.77 86.52-9.42 86.13-9.08 86.13-8.64L86.13-8.64Q86.13-8.4 86.33-8.11L86.33-8.11Q86.13-8.15 85.74-8.15L85.74-8.15Q84.62-8.15 83.54-7.76L83.54-7.76Q83.93-6.93 84.59-6.37 85.25-5.81 85.98-5.32L85.98-5.32Q86.47-5.71 87.01-5.71L87.01-5.71Q87.6-5.71 88.11-5.44 88.62-5.18 89.21-5.18L89.21-5.18Q89.65-5.18 89.84-5.32L89.84-5.32Q90.23-4.88 90.48-4.42 90.72-3.96 91.11-3.56ZM75.83-11.38L75.83-11.38Q75.73-12.21 75.51-12.57 75.29-12.94 75.14-13.48L75.14-13.48Q74.95-14.16 74.88-14.94 74.8-15.72 74.66-16.46L74.66-16.46Q74.31-18.12 73.9-19.78 73.48-21.44 72.85-23L72.85-23Q73.04-23.29 73.04-23.54L73.04-23.54 73.04-23.68Q72.6-24.17 72.41-24.88 72.21-25.59 72.04-26.29 71.87-27 71.6-27.61 71.34-28.22 70.75-28.61L70.75-28.61Q70.6-28.32 70.6-27.93L70.6-27.93Q70.6-27.59 70.68-27.29 70.75-27 70.75-26.66L70.75-26.66Q70.26-26.42 70.04-25.9 69.82-25.39 69.33-25.1L69.33-25.1Q68.94-23.54 68.21-22.14 67.48-20.75 66.67-19.38 65.87-18.02 65.13-16.63 64.4-15.23 63.96-13.72L63.96-13.72Q63.33-13.28 63.11-12.6 62.89-11.91 62.89-11.23L62.89-11.23Q63.33-10.99 63.89-10.96 64.45-10.94 64.99-10.94 65.52-10.94 66.01-10.84 66.5-10.74 66.89-10.35L66.89-10.35Q67.53-10.55 68.28-10.62 69.04-10.69 69.53-11.04L69.53-11.04Q70.51-10.69 71.63-10.69L71.63-10.69Q72.21-10.69 72.78-10.79 73.34-10.89 73.87-11.04L73.87-11.04Q74.31-10.94 74.56-10.72 74.8-10.5 75.29-10.55L75.29-10.55Q75.53-10.74 75.58-10.96 75.63-11.18 75.83-11.38ZM152.19-8.5L152.19-8.5Q152.09-7.76 151.68-7.37 151.26-6.98 150.73-6.64L150.73-6.64Q150.48-6.69 150.26-6.71 150.04-6.74 149.8-6.74L149.8-6.74Q148.29-6.79 146.94-6.35 145.6-5.91 144.18-5.71L144.18-5.71Q143.7-5.62 143.28-5.64 142.87-5.66 142.43-5.57L142.43-5.57Q140.86-5.32 139.11-5.18 137.35-5.03 135.59-4.81 133.83-4.59 132.15-4.27 130.46-3.96 129-3.37L129-3.37Q128.85-3.47 128.71-3.59 128.56-3.71 128.36-3.71L128.36-3.71Q127.88-3.71 127.44-3.56 127-3.42 126.56-3.47L126.56-3.47Q126.07-3.17 125.51-3.05 124.95-2.93 124.38-2.86 123.82-2.78 123.29-2.64 122.75-2.49 122.26-2.1L122.26-2.1Q121.87-2.29 121.31-2.32 120.75-2.34 120.55-2.69L120.55-2.69Q119.43-2.15 118.18-2 116.94-1.86 115.67-1.9L115.67-1.9Q114.84-1.95 113.76-2.15 112.69-2.34 111.62-2.71 110.54-3.08 109.61-3.59 108.69-4.1 108.2-4.83L108.2-4.83Q107.86-5.32 107.71-5.91 107.56-6.49 107.03-6.79L107.03-6.79Q107.17-7.91 107.37-8.98 107.56-10.06 107.76-11.18L107.76-11.18Q108.74-12.01 109.61-12.94 110.49-13.87 111.27-14.89L111.27-14.89Q112.2-15.33 113.01-15.97 113.81-16.6 114.62-17.26 115.42-17.92 116.23-18.55 117.04-19.19 117.96-19.68L117.96-19.68Q118.11-20.02 118.38-20.24 118.65-20.46 118.94-20.68 119.23-20.9 119.48-21.17 119.72-21.44 119.82-21.83L119.82-21.83Q121.53-22.85 122.8-24.41 124.07-25.98 124.46-27.93L124.46-27.93Q123.63-28.61 122.58-28.83 121.53-29.05 120.41-29.15L120.41-29.15Q119.43-29.2 118.38-29.15 117.33-29.1 116.25-29.2L116.25-29.2Q115.18-28.86 114.03-28.76 112.89-28.66 111.76-28.59 110.64-28.52 109.54-28.3 108.44-28.08 107.42-27.49L107.42-27.49Q107.22-27.49 107.05-27.54 106.88-27.59 106.68-27.59L106.68-27.59Q105.12-27.64 103.75-26.98 102.39-26.32 101.07-25.68L101.07-25.68Q100.97-25.49 100.97-25.39L100.97-25.39Q100.97-25.1 101.09-24.83 101.22-24.56 101.22-24.27L101.22-24.27Q101.17-24.22 101.17-24.17 101.17-24.12 101.12-24.07L101.12-24.07Q101.07-23.83 101-23.63 100.92-23.44 100.83-23.19L100.83-23.19Q100.29-21.63 100.24-20.12L100.24-20.12Q100.19-18.85 100.24-17.63 100.29-16.41 100.24-15.14L100.24-15.14Q100.14-13.57 99.75-12.21L99.75-12.21Q100-11.04 100.19-9.74 100.39-8.45 100.68-7.18 100.97-5.91 101.39-4.71 101.8-3.52 102.49-2.44L102.49-2.44Q102.44-2.34 102.53-2.29 102.63-2.25 102.73-2.25L102.73-2.25 103.12-2.25Q103.36-2.25 103.32-2.05L103.32-2.05Q103.41-1.9 103.46-1.78 103.51-1.66 103.66-1.56L103.66-1.56Q103.75-1.42 103.66-1.17L103.66-1.17Q103.61-0.2 103.17 0.63 102.73 1.46 102.63 2.44L102.63 2.44Q102.05 2.59 101.56 2.59L101.56 2.59Q100.73 2.54 100.09 2.12 99.46 1.71 98.92 1.12 98.38 0.54 97.9-0.07 97.41-0.68 96.82-1.12L96.82-1.12Q96.48-2.49 96.16-4.15 95.84-5.81 95.11-6.98L95.11-6.98Q95.31-7.42 95.31-8.06L95.31-8.06Q95.36-9.03 95.14-9.99 94.92-10.94 95.01-11.91L95.01-11.91Q95.01-12.45 95.14-12.99 95.26-13.53 95.31-14.06L95.31-14.06Q95.36-14.89 95.14-15.67 94.92-16.46 94.97-17.29L94.97-17.29Q95.01-17.68 95.14-18.04 95.26-18.41 95.5-18.7L95.5-18.7Q95.26-19.29 95.36-19.82L95.36-19.82Q95.41-20.65 95.55-21.39 95.7-22.12 95.75-22.85L95.75-22.85Q95.75-23.24 95.7-23.61 95.65-23.97 95.55-24.32L95.55-24.32 95.11-24.46Q94.82-24.46 94.55-24.32 94.28-24.17 94.09-23.97 93.89-23.78 93.75-23.66 93.6-23.54 93.45-23.54L93.45-23.54Q93.35-23.54 93.23-23.56 93.11-23.58 93.01-23.58L93.01-23.58Q92.91-23.58 92.65-23.39 92.38-23.19 92.01-22.97 91.65-22.75 91.3-22.53 90.96-22.31 90.77-22.27L90.77-22.27Q90.23-22.36 89.91-22.63 89.59-22.9 89.33-23.17 89.06-23.44 88.76-23.66 88.47-23.88 88.03-23.83L88.03-23.83Q87.89-24.12 87.86-24.46 87.84-24.8 87.89-25.15L87.89-25.15 87.89-25.93Q88.23-26.56 88.79-26.98 89.35-27.39 89.99-27.69L89.99-27.69 91.25-28.27Q91.89-28.56 92.43-29L92.43-29 92.87-29Q93.75-28.96 94.4-29.35 95.06-29.74 95.65-30.25 96.24-30.76 96.85-31.3 97.46-31.84 98.19-32.13L98.19-32.13Q98.73-31.88 99.31-31.71 99.9-31.54 100.53-31.49L100.53-31.49Q101.17-31.49 101.85-31.69 102.53-31.88 102.92-32.42L102.92-32.42Q103.17-32.32 103.34-32.3 103.51-32.28 103.75-32.28L103.75-32.28Q104.49-32.23 105.22-32.5 105.95-32.76 106.64-33.15L106.64-33.15Q107.61-33.11 108.56-33.28 109.52-33.45 110.47-33.64 111.42-33.84 112.37-34.01 113.33-34.18 114.3-34.13L114.3-34.13Q115.91-34.08 117.48-34.42 119.04-34.77 120.65-34.67L120.65-34.67Q121.77-34.62 122.87-34.5 123.97-34.38 125.09-34.42L125.09-34.42Q125.73-34.13 126.24-33.91 126.75-33.69 127.53-33.79L127.53-33.79Q129.1-32.47 130.37-30.71L130.37-30.71 130.37-29.88Q130.32-28.76 129.98-27.69 129.63-26.61 129.17-25.56 128.71-24.51 128.17-23.51 127.63-22.51 127.14-21.53L127.14-21.53Q123.97-18.65 120.8-15.82 117.62-12.99 114.25-10.35L114.25-10.35Q114.16-9.86 113.98-9.47 113.81-9.08 113.76-8.64L113.76-8.64Q113.76-8.4 113.81-8.25L113.81-8.25Q114.16-8.15 114.42-7.89 114.69-7.62 114.59-7.18L114.59-7.18 115.03-7.18Q115.28-7.18 115.28-6.98L115.28-6.98 116.06-6.93Q117.91-6.84 119.77-7.03 121.63-7.23 123.51-7.47 125.39-7.71 127.24-7.93 129.1-8.15 130.95-8.2L130.95-8.2Q131.39-8.35 131.88-8.45 132.37-8.54 132.76-8.84L132.76-8.84 132.91-8.84Q133.25-8.84 133.42-8.64 133.59-8.45 133.93-8.4L133.93-8.4Q134.17-8.4 134.44-8.5 134.71-8.59 135-8.64L135-8.64Q135.69-8.84 136.45-8.89 137.2-8.94 137.93-9.03L137.93-9.03Q140.77-9.28 143.55-9.35 146.33-9.42 149.12-10.06L149.12-10.06Q149.36-9.72 149.8-9.59 150.24-9.47 150.73-9.35 151.22-9.23 151.63-9.08 152.05-8.94 152.19-8.5ZM176.95-2.49L176.95-2.49Q176.95-2.1 176.6-1.86 176.26-1.61 175.82-1.37L175.82-1.37 174.94-0.93Q174.5-0.73 174.36-0.39L174.36-0.39Q173.82-0.54 173.31-0.59 172.8-0.63 172.31-0.63L172.31-0.63Q171.67-0.63 170.99-0.51 170.31-0.39 169.91 0.15L169.91 0.15Q169.67 0.05 169.47 0.05L169.47 0.05 169.08 0.05Q168.35 0.05 167.6 0.17 166.84 0.29 166.11 0.29L166.11 0.29Q165.72 0.29 165.35 0.24 164.98 0.2 164.69-0.05L164.69-0.05Q164.25 0.1 163.76 0.1L163.76 0.1Q163.13 0.1 162.54-0.1 161.96-0.29 161.39-0.56 160.83-0.83 160.25-1.07 159.66-1.32 159.07-1.46L159.07-1.46 158.73-2.15Q157.95-2.29 157.29-2.61 156.63-2.93 156-3.32 155.36-3.71 154.75-4.08 154.14-4.44 153.51-4.59L153.51-4.59Q153.26-4.79 153.07-4.96 152.87-5.13 152.78-5.47L152.78-5.47Q152.14-5.62 151.6-5.86L151.6-5.86 150.58-6.4Q150.09-6.69 149.48-6.91 148.87-7.13 148.04-7.18L148.04-7.18Q147.75-7.62 147.21-8.01 146.67-8.4 146.14-8.4L146.14-8.4Q145.79-8.4 145.6-8.25L145.6-8.25 145.6-8.01Q145.6-7.42 145.94-6.84 146.28-6.25 146.82-6.01L146.82-6.01Q146.77-5.91 146.77-5.71L146.77-5.71Q146.77-5.42 146.89-5.13 147.01-4.83 147.36-4.74L147.36-4.74Q147.16-4.2 146.87-3.64 146.57-3.08 146.14-2.59 145.7-2.1 145.18-1.78 144.67-1.46 144.04-1.46L144.04-1.46Q143.84-1.37 143.77-1.17 143.69-0.98 143.67-0.76 143.64-0.54 143.57-0.34 143.5-0.15 143.35-0.05L143.35-0.05Q143.16 0 142.81 0L142.81 0Q142.33 0 141.98-0.15 141.64-0.29 141.25-0.54L141.25-0.54 141.25-0.73Q141.25-1.32 141.03-1.66 140.81-2 140.54-2.32 140.28-2.64 140.06-2.98 139.84-3.32 139.84-3.91L139.84-3.91Q139.69-3.81 139.52-3.76 139.35-3.71 139.3-3.56L139.3-3.56Q139.2-4.05 139.2-4.39L139.2-4.39Q139.2-5.37 139.52-6.25 139.84-7.13 139.84-8.11L139.84-8.11 139.84-8.84Q139.84-9.96 139.79-11.04 139.74-12.11 139.74-13.18L139.74-13.18Q139.74-14.11 139.79-15.01 139.84-15.92 139.98-16.85L139.98-16.85Q140.52-20.07 140.89-23.27 141.25-26.46 142.08-29.64L142.08-29.64Q142.03-29.88 141.96-30.13 141.89-30.37 141.89-30.62L141.89-30.62Q141.89-30.81 141.94-30.86L141.94-30.86Q142.13-31.84 142.81-32.5 143.5-33.15 144.57-33.15L144.57-33.15 144.72-33.15Q145.31-32.91 145.62-32.45 145.94-31.98 146.62-32.08L146.62-32.08Q146.62-31.98 146.6-31.88 146.57-31.79 146.57-31.69L146.57-31.69Q146.57-31.15 146.87-30.91 147.16-30.66 147.55-30.37L147.55-30.37Q147.31-29.88 147.23-29.25 147.16-28.61 147.11-27.98 147.06-27.34 146.94-26.76 146.82-26.17 146.48-25.78L146.48-25.78Q146.67-25.29 146.72-24.8 146.77-24.32 146.77-23.78L146.77-23.78Q146.77-23.24 146.72-22.68 146.67-22.12 146.67-21.53L146.67-21.53Q146.67-21 146.82-20.56L146.82-20.56Q147.89-20.56 148.04-21.58L148.04-21.58Q149.31-21.92 150.31-22.53 151.31-23.14 152.24-23.83 153.17-24.51 154.07-25.24 154.97-25.98 156.1-26.51L156.1-26.51 156.1-26.61Q156.1-26.86 156.24-26.93 156.39-27 156.29-27.34L156.29-27.34Q157.02-27.59 157.54-28 158.05-28.42 158.49-28.91L158.49-28.91 159.42-29.93Q159.9-30.47 160.49-30.86L160.49-30.86Q160.88-31.69 161.2-32.62 161.52-33.54 162.05-34.33L162.05-34.33Q162.98-34.33 164.08-34.18 165.18-34.03 165.96-33.5L165.96-33.5Q165.86-33.11 166.3-32.96L166.3-32.96Q165.76-30.91 164.69-29.27 163.62-27.64 161.91-26.51L161.91-26.51Q161.66-25.98 161.27-25.59 160.88-25.2 160.49-24.83 160.1-24.46 159.71-24.07 159.32-23.68 159.07-23.14L159.07-23.14Q158.49-23.05 158.07-22.8 157.66-22.56 157.29-22.24 156.93-21.92 156.51-21.66 156.1-21.39 155.61-21.24L155.61-21.24Q155.22-20.75 154.7-20.41 154.19-20.07 153.68-19.75 153.17-19.43 152.73-19.07 152.29-18.7 152.09-18.12L152.09-18.12 150.82-18.12Q150.29-17.19 149.43-16.58 148.58-15.97 147.7-15.43L147.7-15.43Q147.84-14.84 148.23-14.48 148.63-14.11 149.09-13.82 149.55-13.53 150.02-13.21 150.48-12.89 150.82-12.45L150.82-12.45Q152.87-11.67 154.78-10.67 156.68-9.67 158.39-8.25L158.39-8.25Q158.49-8.3 158.64-8.3L158.64-8.3Q159.03-8.3 159.27-8.08 159.51-7.86 159.95-7.91L159.95-7.91Q160.15-7.42 160.49-7.25 160.83-7.08 161.2-6.98 161.56-6.88 161.91-6.69 162.25-6.49 162.39-6.01L162.39-6.01Q163.13-5.96 163.74-5.71 164.35-5.47 164.84-4.93L164.84-4.93 165.42-4.93Q166.98-4.93 168.45-4.64 169.91-4.35 171.43-4.35L171.43-4.35Q172.21-4.35 172.94-4.47 173.67-4.59 174.36-4.93L174.36-4.93Q174.6-4.79 174.89-4.64 175.19-4.49 175.53-4.49L175.53-4.49Q175.77-4.49 176.26-4.59L176.26-4.59Q176.31-4.05 176.63-3.56 176.95-3.08 176.95-2.49ZM199.99-7.91L199.99-7.91Q199.79-7.18 199.36-6.69 198.92-6.2 198.35-5.81 197.79-5.42 197.16-5.1 196.52-4.79 195.94-4.39L195.94-4.39 195.3-4.39Q193.25-4.39 192.15-5.4 191.05-6.4 190.47-7.89 189.88-9.38 189.61-11.08 189.35-12.79 188.95-14.21L188.95-14.21Q188.37-13.72 187.98-13.06 187.59-12.4 187.17-11.77 186.76-11.13 186.24-10.6 185.73-10.06 184.9-9.86L184.9-9.86Q184.76-9.52 184.58-9.18 184.41-8.84 184.37-8.45L184.37-8.45Q183.29-7.86 182.41-7.08 181.53-6.3 180.65-5.47 179.78-4.64 178.87-3.88 177.97-3.13 176.85-2.64L176.85-2.64Q176.8-2.69 176.65-2.69L176.65-2.69Q176.06-2.69 175.58-2.42 175.09-2.15 174.5-2.15L174.5-2.15Q174.11-2.15 173.79-2.29 173.48-2.44 173.16-2.64 172.84-2.83 172.5-2.93 172.16-3.03 171.77-2.98L171.77-2.98Q171.28-3.86 170.47-4.61 169.67-5.37 169.47-6.35L169.47-6.35Q169.37-6.79 169.35-7.25 169.33-7.71 169.23-8.2L169.23-8.2Q169.08-8.94 168.84-9.69 168.59-10.45 168.45-11.23L168.45-11.23Q168.69-12.55 168.91-14.14 169.13-15.72 169.45-17.31 169.77-18.9 170.33-20.34 170.89-21.78 171.77-22.8L171.77-22.8 171.72-23.14Q171.72-23.93 172.01-24.61 172.3-25.29 172.65-25.93 172.99-26.56 173.23-27.2 173.48-27.83 173.33-28.61L173.33-28.61Q173.92-28.91 174.55-29.1 175.19-29.3 175.87-29.3L175.87-29.3Q176.5-29.3 177.04-29.1L177.04-29.1Q176.94-28.71 177.38-28.61L177.38-28.61 177.38-28.47Q177.38-27.44 177.14-26.46 176.89-25.49 176.55-24.54 176.21-23.58 175.89-22.63 175.58-21.68 175.43-20.7L175.43-20.7Q175.23-20.65 175.16-20.51 175.09-20.36 175.04-20.21 174.99-20.07 174.89-19.97 174.79-19.87 174.6-19.87L174.6-19.87Q174.31-18.16 173.99-16.48 173.67-14.79 173.67-13.09L173.67-13.09Q173.67-12.06 173.87-10.99 174.06-9.91 174.6-8.94L174.6-8.94 174.79-8.98Q175.33-8.98 175.65-8.74 175.97-8.5 176.5-8.25L176.5-8.25Q176.89-8.35 177.24-8.52 177.58-8.69 177.53-9.13L177.53-9.13Q178.16-9.18 178.6-9.45 179.04-9.72 179.38-10.06L179.38-10.06 180.12-10.74Q180.51-11.08 181.04-11.23L181.04-11.23Q181.04-11.52 181.19-11.67L181.19-11.67 181.48-11.96Q181.63-12.11 181.7-12.28 181.78-12.45 181.73-12.79L181.73-12.79Q182.31-12.84 182.63-13.09 182.95-13.33 183.22-13.65 183.49-13.96 183.73-14.31 183.97-14.65 184.37-14.89L184.37-14.89Q184.71-15.63 185.32-16.85 185.93-18.07 186.54-19.38 187.15-20.7 187.61-21.9 188.08-23.1 188.08-23.73L188.08-23.73Q188.08-23.97 187.95-24.17 187.83-24.37 187.88-24.61L187.88-24.61 187.88-24.76Q188.27-25.24 188.59-25.83 188.91-26.42 189.27-26.95 189.64-27.49 190.08-27.93 190.52-28.37 191.2-28.61L191.2-28.61Q191.98-28.37 192.79-28.27 193.59-28.17 194.33-27.88L194.33-27.88Q194.37-26.66 194.57-25.05 194.77-23.44 195.25-22.31L195.25-22.31Q195.25-21.68 195.23-21.09 195.2-20.51 195.2-19.92L195.2-19.92Q195.2-18.95 195.28-17.92 195.35-16.89 195.6-16.02L195.6-16.02Q195.25-15.28 195.25-14.45L195.25-14.45Q195.25-13.33 195.6-12.33 195.94-11.33 196.08-10.21L196.08-10.21Q196.72-9.33 197.74-9.33L197.74-9.33Q197.99-9.33 198.16-9.38 198.33-9.42 198.53-9.52L198.53-9.52Q198.92-9.08 199.23-8.67 199.55-8.25 199.99-7.91ZM227.43-6.15L227.43-6.15Q227.43-5.32 227.01-4.71 226.6-4.1 226.7-3.22L226.7-3.22Q226.01-2.83 225.57-2.2 225.13-1.56 224.74-0.88L224.74-0.88Q221.52 1.22 217.83 2.51 214.15 3.81 210.24 3.81L210.24 3.81Q210 3.81 209.8 3.59 209.61 3.37 209.41 3.13 209.22 2.88 209 2.66 208.78 2.44 208.48 2.44L208.48 2.44Q208.14 2.44 207.95 2.59L207.95 2.59Q207.95 2.49 207.97 2.42 208 2.34 208 2.25L208 2.25Q208 1.66 207.85 1.05 207.7 0.44 207.7-0.15L207.7-0.15Q207.7-0.83 207.95-1.27L207.95-1.27 208.53-1.27Q209.02-1.27 209.48-1.34 209.95-1.42 210.49-1.42L210.49-1.42Q211.02-1.42 211.46-1.12L211.46-1.12Q214.15-1.22 216.56-2.12 218.98-3.03 221.47-3.91L221.47-3.91Q221.86-4.44 221.94-5.1 222.01-5.76 222.3-6.35L222.3-6.35Q221.03-7.42 219.74-8.03 218.44-8.64 216.74-8.45L216.74-8.45Q215.71-9.08 214.56-9.18 213.42-9.28 212.24-9.47L212.24-9.47Q211.95-9.52 211.63-9.59 211.32-9.67 210.97-9.67L210.97-9.67Q210.73-9.67 210.51-9.55 210.29-9.42 210.39-9.18L210.39-9.18Q210.14-9.57 209.73-9.64 209.31-9.72 209.02-10.01L209.02-10.01Q207.46-10.11 206.29-10.57 205.11-11.04 203.7-11.62L203.7-11.62Q203.31-11.77 202.94-11.84 202.58-11.91 202.23-12.11L202.23-12.11Q201.35-12.55 200.82-13.28 200.28-14.01 199.96-14.92 199.65-15.82 199.5-16.8 199.35-17.77 199.21-18.6L199.21-18.6Q199.65-19.38 200.01-20.21 200.38-21.04 200.62-21.97L200.62-21.97Q200.92-22.12 201.21-22.22 201.5-22.31 201.84-22.46L201.84-22.46Q201.79-22.56 201.79-22.71L201.79-22.71Q201.79-22.95 201.97-23.19 202.14-23.44 202.04-23.68L202.04-23.68Q203.11-24.66 204.11-25.71 205.11-26.76 205.85-28.03L205.85-28.03Q206.58-28.27 207.02-28.76 207.46-29.25 207.9-29.76 208.34-30.27 208.87-30.69 209.41-31.1 210.24-31.2L210.24-31.2Q210.44-31.54 210.78-31.76 211.12-31.98 211.46-32.18 211.8-32.37 212.1-32.62 212.39-32.86 212.54-33.3L212.54-33.3Q213.32-33.3 213.98-33.59 214.64-33.89 215.27-34.23 215.91-34.57 216.56-34.86 217.22-35.16 218.01-35.16L218.01-35.16Q218.2-35.16 218.4-35.13 218.59-35.11 218.84-35.06L218.84-35.06Q219.18-34.72 219.3-34.25 219.42-33.79 219.47-33.25 219.52-32.71 219.54-32.18 219.57-31.64 219.71-31.2L219.71-31.2Q219.27-30.37 218.76-29.54 218.25-28.71 217.42-28.27L217.42-28.27 217.32-28.27Q216.98-28.22 216.69-28.42 216.39-28.61 216-28.61L216-28.61Q215.76-28.61 215.61-28.47L215.61-28.47 215.37-28.22Q215.27-28.13 215.1-28.03 214.93-27.93 214.64-28.03L214.64-28.03Q213.95-27.78 214.1-27.2L214.1-27.2Q213.17-27.1 212.54-26.64 211.9-26.17 211.36-25.61 210.83-25.05 210.29-24.58 209.75-24.12 209.02-24.07L209.02-24.07Q208.19-22.61 206.99-21.48 205.8-20.36 205.02-18.95L205.02-18.95Q205.16-18.55 205.21-18.12 205.26-17.68 205.36-17.19L205.36-17.19Q205.8-16.6 206.41-16.16 207.02-15.72 207.6-15.28L207.6-15.28 207.75-15.28Q208.73-15.28 209.56-14.92 210.39-14.55 211.32-14.55L211.32-14.55Q211.8-14.55 212.15-14.75L212.15-14.75Q213.42-14.45 214.66-14.26 215.91-14.06 217.18-13.96L217.18-13.96Q217.81-13.87 218.47-13.87 219.13-13.87 219.71-13.72L219.71-13.72Q220.25-13.57 220.79-13.35 221.33-13.13 221.86-12.89L221.86-12.89Q222.99-12.4 223.99-11.82 224.99-11.23 225.77-10.42 226.55-9.62 226.99-8.57 227.43-7.52 227.43-6.15ZM295.83-35.21L295.83-34.08Q295.83-31.3 295.1-28.96 294.37-26.61 293.22-24.46 292.07-22.31 290.75-20.21 289.44-18.12 288.26-15.77L288.26-15.77Q287.97-15.77 287.85-15.63 287.73-15.48 287.65-15.26 287.58-15.04 287.46-14.87 287.34-14.7 287.04-14.7L287.04-14.7Q286.6-13.62 285.92-12.67 285.24-11.72 284.48-10.82 283.72-9.91 283.01-8.98 282.31-8.06 281.77-6.98L281.77-6.98 281.28-6.98Q278.64-3.17 275.35-0.15 272.05 2.88 268.15 5.27L268.15 5.27Q268.05 5.57 267.85 5.76 267.66 5.96 267.76 6.3L267.76 6.3Q267.22 6.59 266.85 7.06 266.49 7.52 266.14 8.01 265.8 8.5 265.44 8.96 265.07 9.42 264.48 9.67L264.48 9.67Q263.75 9.52 263.09 9.42 262.43 9.33 261.75 9.28L261.75 9.28Q261.46 9.28 261.16 9.3 260.87 9.33 260.63 9.28L260.63 9.28Q260.09 9.18 259.72 8.86 259.36 8.54 258.67 8.54L258.67 8.54Q258.33 8.54 258.14 8.59L258.14 8.59Q257.75 7.91 257.23 7.2 256.72 6.49 256.72 5.66L256.72 5.66Q256.72 5.03 256.89 4.49 257.06 3.96 257.06 3.37L257.06 3.37Q257.06 2.2 256.65 1.07 256.23-0.05 256.23-1.22L256.23-1.22Q256.23-1.61 256.33-1.98 256.43-2.34 256.43-2.73L256.43-2.73Q256.43-3.17 256.04-3.52L256.04-3.52Q256.09-3.76 256.23-4 256.38-4.25 256.38-4.54L256.38-4.54Q256.48-4.93 256.43-5.4 256.38-5.86 256.38-6.25L256.38-6.25Q256.38-7.28 256.48-8.3 256.57-9.33 256.92-10.3L256.92-10.3Q256.87-10.6 256.77-10.84L256.77-10.84 256.57-11.33Q256.92-12.35 257.01-13.62 257.11-14.89 257.11-16.16L257.11-16.16 257.11-18.75Q257.11-20.02 257.26-21.14L257.26-21.14Q257.36-21.63 257.48-22.09 257.6-22.56 257.6-23L257.6-23Q257.6-23.39 257.45-23.71 257.31-24.02 257.06-24.32L257.06-24.32Q257.4-24.41 257.45-24.73 257.5-25.05 257.5-25.29L257.5-25.29Q257.5-25.98 257.26-26.81L257.26-26.81Q257.45-27.64 257.5-28.49 257.55-29.35 257.55-30.18L257.55-30.18Q257.55-33.11 257.18-35.94 256.82-38.77 256.72-41.65L256.72-41.65 256.57-41.65Q256.23-41.65 256.04-41.5 255.84-41.36 255.65-41.19 255.45-41.02 255.21-40.89 254.96-40.77 254.62-40.82L254.62-40.82Q254.04-40.14 253.28-39.65 252.52-39.16 251.69-38.77 250.86-38.38 249.98-38.06 249.1-37.74 248.32-37.45L248.32-37.45Q247.64-37.7 247.15-38.26 246.66-38.82 246.22-39.4L246.22-39.4Q246.17-39.6 246.17-39.79L246.17-39.79 246.17-40.19Q246.17-41.55 246.81-42.26 247.44-42.97 248.18-43.95L248.18-43.95 248.42-43.95Q248.66-43.95 248.84-43.85 249.01-43.75 249.25-43.75L249.25-43.75 249.4-43.75Q250.81-44.92 252.4-45.63 253.99-46.34 255.7-46.73L255.7-46.73Q256.43-47.46 257.18-47.85 257.94-48.24 258.97-48.24L258.97-48.24Q259.21-48.24 259.53-48.22 259.85-48.19 260.09-48.14L260.09-48.14Q262.09-49.07 263.87-49.73 265.66-50.39 268-50.39L268-50.39Q268.29-50.39 268.42-50.54 268.54-50.68 268.63-50.85 268.73-51.03 268.83-51.17 268.93-51.32 269.17-51.32L269.17-51.32Q269.17-51.22 269.22-51.03 269.27-50.83 269.46-50.83L269.46-50.83Q269.66-50.83 269.83-50.95 270-51.07 270.25-51.07L270.25-51.07Q270.49-51.07 270.59-50.73L270.59-50.73Q271.13-51.07 271.61-51.37 272.1-51.66 272.69-51.81L272.69-51.81Q273.42-51.66 274.18-51.56 274.93-51.46 275.71-51.46L275.71-51.46Q276.3-51.46 276.89-51.54 277.47-51.61 277.91-52L277.91-52Q278.11-52.05 278.11-51.81L278.11-51.81Q278.55-51.42 279.04-51.29 279.52-51.17 280.06-51.15 280.6-51.12 281.13-51.07 281.67-51.03 282.11-50.73L282.11-50.73Q282.5-50.63 282.75-50.42 282.99-50.2 283.38-50.05L283.38-50.05Q283.67-49.95 284.19-49.9 284.7-49.85 284.94-49.71L284.94-49.71Q285.19-49.61 285.21-49.39 285.24-49.17 285.48-49.02L285.48-49.02Q285.92-48.68 286.65-48.61 287.38-48.54 287.92-48.14L287.92-48.14Q288.12-47.07 289-46.73 289.88-46.39 290.71-46.04L290.71-46.04Q291-45.75 290.9-45.36L290.9-45.36Q291.49-44.92 291.95-44.38 292.41-43.85 292.83-43.24 293.24-42.63 293.63-42.04 294.03-41.46 294.56-40.97L294.56-40.97Q294.51-40.53 294.68-40.28 294.86-40.04 294.76-39.55L294.76-39.55Q295.34-39.01 295.83-38.13L295.83-38.13Q295.54-37.7 295.54-37.16L295.54-37.16Q295.54-36.67 295.69-36.18 295.83-35.69 295.83-35.21L295.83-35.21ZM291.29-34.33L291.29-35.16Q291.29-36.57 290.75-37.92 290.22-39.26 289.83-40.58L289.83-40.58Q289.19-40.58 289.02-41.04 288.85-41.5 288.41-41.85L288.41-41.85Q287.48-42.04 287.24-43.26L287.24-43.26Q286.26-43.65 285.24-44.14 284.21-44.63 283.53-45.51L283.53-45.51Q281.77-46.04 279.99-46.61 278.21-47.17 276.35-47.17L276.35-47.17Q276.01-47.17 275.74-47.14 275.47-47.12 275.23-47.12L275.23-47.12Q274.84-47.12 274.4-46.97 273.96-46.83 273.57-46.83L273.57-46.83Q273.13-46.83 272.69-47.12L272.69-47.12Q271.71-46.58 270.56-46.29 269.42-46 268.24-45.78 267.07-45.56 265.95-45.24 264.83-44.92 263.95-44.29L263.95-44.29Q263.65-44.38 263.39-44.43 263.12-44.48 262.87-44.48L262.87-44.48Q262.43-44.48 262.19-44.29L262.19-44.29Q262.04-44.19 262.02-44.04 261.99-43.9 261.97-43.73 261.95-43.55 261.85-43.46 261.75-43.36 261.46-43.41L261.46-43.41Q261.46-43.16 261.43-42.97 261.41-42.77 261.41-42.53L261.41-42.53Q261.41-41.26 261.68-40.01 261.95-38.77 261.95-37.5L261.95-37.5Q261.95-37.06 261.9-36.6 261.85-36.13 261.7-35.69L261.7-35.69Q261.95-35.11 261.97-34.42 261.99-33.74 261.99-33.06 261.99-32.37 262.04-31.71 262.09-31.05 262.38-30.47L262.38-30.47Q262.24-29.74 262.19-29 262.14-28.27 262.14-27.54L262.14-27.54Q262.14-25.83 262.31-24.17 262.48-22.51 262.48-20.8L262.48-20.8Q262.48-20.36 262.46-19.87 262.43-19.38 262.38-18.9L262.38-18.9Q262.29-18.26 262.04-17.68 261.8-17.09 261.8-16.41L261.8-16.41Q261.8-15.97 261.85-15.5 261.9-15.04 261.9-14.55L261.9-14.55Q261.9-14.36 261.87-14.18 261.85-14.01 261.85-13.82L261.85-13.82Q261.6-12.11 261.46-10.35 261.31-8.59 261.31-6.88L261.31-6.88Q261.31-5.27 261.41-3.69 261.51-2.1 261.7-0.49L261.7-0.49Q261.51-0.15 261.51 0.29L261.51 0.29Q261.51 0.98 261.85 1.68 262.19 2.39 262.87 2.64L262.87 2.64Q264.44 2.05 265.78 1.1 267.12 0.15 268.49-0.83L268.49-0.83Q268.83-1.07 269.51-1.49 270.2-1.9 270.44-2.1L270.44-2.1Q270.69-2.29 270.86-2.51 271.03-2.73 271.27-2.98L271.27-2.98 273.42-5.27Q275.28-7.18 277.11-9.13 278.94-11.08 280.5-13.28L280.5-13.28Q280.94-13.96 281.38-14.62 281.82-15.28 282.21-16.02L282.21-16.02Q282.4-16.26 282.5-16.58 282.6-16.89 282.84-17.14L282.84-17.14Q282.99-17.33 283.21-17.53 283.43-17.72 283.58-17.92L283.58-17.92Q283.97-18.36 284.33-18.82 284.7-19.29 285.09-19.82L285.09-19.82Q286.16-21.39 287.09-22.97 288.02-24.56 289.14-26.12L289.14-26.12Q289.24-27.1 289.53-27.95 289.83-28.81 290.12-29.61 290.41-30.42 290.61-31.3 290.8-32.18 290.71-33.25L290.71-33.25Q290.95-33.59 291.12-33.74 291.29-33.89 291.29-34.33L291.29-34.33ZM327.13-28.27L327.13-28.27Q326.84-27.83 326.79-27.29 326.74-26.76 326.74-26.32L326.74-26.32Q326.74-25.73 326.76-25.17 326.79-24.61 326.79-24.07L326.79-24.07 326.79-23.34Q326.69-23 326.49-22.66 326.3-22.31 326.2-21.97L326.2-21.97Q325.52-20.17 325.52-18.36L325.52-18.36 325.52-18.26Q325.27-17.68 325.05-17.19 324.83-16.7 324.64-16.24 324.44-15.77 324.35-15.26 324.25-14.75 324.3-14.06L324.3-14.06Q323.61-12.35 322.49-10.96 321.37-9.57 320.29-8.11L320.29-8.11Q319.27-7.71 318.41-7.08 317.56-6.45 316.78-5.66L316.78-5.66Q315.26-5.18 313.8-4.54 312.33-3.91 311.16-2.83L311.16-2.83Q310.23-2.73 309.31-2.54 308.38-2.34 307.5-1.95L307.5-1.95 306.91-1.95Q306.47-1.95 306.28-2.15L306.28-2.15Q305.64-1.81 304.96-1.68 304.28-1.56 303.59-1.56L303.59-1.56Q302.71-1.56 301.86-1.68 301.01-1.81 300.13-1.95L300.13-1.95Q299.64-2.64 298.76-3 297.88-3.37 297.2-3.71L297.2-3.71Q295.78-5.66 295.15-7.5 294.51-9.33 293.83-11.62L293.83-11.62Q293.93-12.3 294.17-12.96 294.41-13.62 294.36-14.4L294.36-14.4Q295.24-16.94 296.68-19.02 298.12-21.09 299.98-23L299.98-23Q299.98-23.29 300.1-23.49 300.22-23.68 300.13-24.07L300.13-24.07Q300.18-24.02 300.32-24.02L300.32-24.02Q300.71-24.02 300.81-24.24 300.91-24.46 300.86-24.76L300.86-24.76Q302.62-25.88 304.06-27.34 305.5-28.81 307.35-29.79L307.35-29.79Q307.5-30.22 307.84-30.52 308.18-30.81 308.38-31.2L308.38-31.2Q309.94-31.64 311.21-32.52 312.48-33.4 313.9-34.08L313.9-34.08Q314.68-34.52 315.39-34.69 316.09-34.86 316.92-35.06L316.92-35.06Q317.22-35.16 317.46-35.21 317.7-35.25 318-35.25L318-35.25Q318.88-35.25 319.71-34.94 320.54-34.62 321.42-34.62L321.42-34.62Q321.66-34.62 321.83-34.64 322-34.67 322.2-34.72L322.2-34.72Q323.03-33.69 324.3-33.15L324.3-33.15Q324.59-32.42 325-31.88 325.42-31.35 325.86-30.83 326.3-30.32 326.66-29.71 327.03-29.1 327.13-28.27ZM322.25-25.73L322.25-25.73Q322.25-25.98 322.2-26.17L322.2-26.17Q321.71-26.32 321.27-26.56 320.83-26.81 320.29-26.81L320.29-26.81Q319.95-26.81 319.61-26.66L319.61-26.66Q319.56-27 319.34-27.15 319.12-27.29 318.85-27.42 318.58-27.54 318.31-27.61 318.05-27.69 317.85-27.88L317.85-27.88Q317.7-28.27 317.53-28.69 317.36-29.1 316.92-29.3L316.92-29.3Q316.48-28.86 315.9-28.59 315.31-28.32 314.7-28.08 314.09-27.83 313.53-27.49 312.97-27.15 312.58-26.66L312.58-26.66 311.7-26.66Q311.41-26.12 310.87-25.85 310.33-25.59 309.94-25.1L309.94-25.1Q309.16-24.71 308.5-24.15 307.84-23.58 307.21-22.97 306.57-22.36 305.96-21.73 305.35-21.09 304.67-20.56L304.67-20.56Q304.03-19.19 303.28-18.19 302.52-17.19 301.86-16.16 301.2-15.14 300.74-13.94 300.27-12.74 300.27-10.99L300.27-10.99 300.27-10.5Q300.27-10.25 300.32-10.01L300.32-10.01Q300.96-9.33 301.37-8.54 301.79-7.76 302.76-7.42L302.76-7.42Q303.74-7.03 304.84-7.08 305.94-7.13 306.96-6.84L306.96-6.84Q309.31-7.28 311.48-8.28 313.65-9.28 315.61-10.69L315.61-10.69Q315.9-10.94 316.29-11.21 316.68-11.47 316.92-11.77L316.92-11.77Q317.17-12.01 317.34-12.3 317.51-12.6 317.7-12.84L317.7-12.84Q318.1-13.48 318.58-14.11 319.07-14.75 319.61-15.28L319.61-15.28Q319.85-16.36 320.24-17.36 320.63-18.36 321.02-19.34 321.42-20.31 321.68-21.34 321.95-22.36 321.95-23.49L321.95-23.49Q321.95-23.73 321.93-24.02 321.9-24.32 321.86-24.56L321.86-24.56Q322.25-25.1 322.25-25.73ZM377.47-6.15L377.47-6.15Q377.22-5.37 377.32-4.59L377.32-4.59Q377.17-4.39 376.98-4.35 376.78-4.3 376.59-4.22 376.39-4.15 376.27-4.03 376.15-3.91 376.25-3.56L376.25-3.56Q374.64-3.47 373.17-2.88 371.71-2.29 370.29-1.61L370.29-1.61Q369.56-1.86 369.02-2.2 368.48-2.54 367.65-2.64L367.65-2.64Q366.82-4.3 366.12-6.13 365.41-7.96 365.41-9.81L365.41-9.81Q365.41-11.18 365.9-12.3L365.9-12.3Q365.9-13.77 366.14-15.19 366.38-16.6 366.7-17.99 367.02-19.38 367.26-20.8 367.51-22.22 367.51-23.68L367.51-23.68 367.51-24.76Q367.41-24.76 367.26-24.54 367.12-24.32 366.99-24.05 366.87-23.78 366.77-23.54 366.68-23.29 366.63-23.24L366.63-23.24Q365.8-22.61 365.33-21.66 364.87-20.7 364.33-19.87L364.33-19.87Q363.65-18.85 362.89-17.87 362.14-16.89 361.01-16.36L361.01-16.36 361.01-16.26Q361.01-16.02 360.87-15.92 360.72-15.82 360.82-15.43L360.82-15.43Q359.6-15.04 358.55-14.31 357.5-13.57 356.81-12.45L356.81-12.45Q355.84-12.21 354.98-11.79 354.13-11.38 353.25-10.89L353.25-10.89Q352.86-10.69 352.42-10.4 351.98-10.11 351.54-10.01L351.54-10.01Q351.15-9.86 350.49-9.81 349.83-9.77 349.12-9.72 348.42-9.67 347.73-9.67L347.73-9.67 346.66-9.67Q346.41-9.67 346.02-9.91 345.63-10.16 345.17-10.45 344.7-10.74 344.22-11.01 343.73-11.28 343.29-11.38L343.29-11.38Q342.9-12.65 342.19-13.65 341.48-14.65 340.7-15.67L340.7-15.67Q340.46-16.85 340.04-18.12 339.63-19.38 338.6-20.21L338.6-20.21Q338.84-20.56 338.84-21L338.84-21Q338.84-21.53 338.6-22.02 338.36-22.51 338.36-23.1L338.36-23.1Q338.36-23.49 338.41-23.68L338.41-23.68Q337.87-23.1 337.65-22.19 337.43-21.29 337.43-20.56L337.43-20.56Q337.43-19.97 337.58-19.48L337.58-19.48Q337.09-18.8 336.96-17.77 336.84-16.75 336.84-15.97L336.84-15.97Q336.84-14.99 336.99-14.06L336.99-14.06Q336.21-13.28 336.21-12.16L336.21-12.16Q336.21-11.52 336.5-11.04L336.5-11.04Q336.5-10.84 336.4-10.74 336.31-10.64 336.18-10.6 336.06-10.55 335.94-10.47 335.82-10.4 335.82-10.21L335.82-10.21Q335.82-9.96 335.84-9.67 335.87-9.38 335.87-9.08L335.87-9.08Q335.87-8.4 335.82-7.67 335.77-6.93 335.77-6.25L335.77-6.25Q335.77-4.83 336.04-4.22 336.31-3.61 336.72-3.32 337.14-3.03 337.62-2.73 338.11-2.44 338.6-1.61L338.6-1.61Q338.45-1.17 338.09-0.9 337.72-0.63 337.4-0.37 337.09-0.1 336.84 0.24 336.6 0.59 336.65 1.22L336.65 1.22 336.4 1.22Q335.77 1.22 335.18 1.42 334.6 1.61 333.96 1.61L333.96 1.61Q333.82 1.61 333.67 1.59 333.52 1.56 333.38 1.56L333.38 1.56 332.89 1.27Q332.64 1.12 332.4 1.12L332.4 1.12Q332.16 1.12 331.76 1.22L331.76 1.22Q331.08-0.98 330.71-3.32 330.35-5.66 330.35-7.91L330.35-7.91Q330.35-8.15 330.47-8.42 330.59-8.69 330.84-8.59L330.84-8.59 330.84-9.52Q330.84-11.04 331.11-12.48 331.37-13.92 331.37-15.48L331.37-15.48Q331.37-15.92 331.35-16.36 331.33-16.8 331.28-17.19L331.28-17.19Q331.52-18.02 331.79-18.87 332.06-19.73 332.06-20.65L332.06-20.65Q332.06-21.04 331.91-21.58L331.91-21.58Q332.3-21.88 332.5-22.34 332.69-22.8 332.79-23.36 332.89-23.93 332.94-24.46 332.99-25 333.03-25.44L333.03-25.44Q333.52-26.42 333.57-27.54 333.62-28.66 334.06-29.64L334.06-29.64Q334.01-29.83 334.01-30.32L334.01-30.32Q334.01-31.3 334.33-32.3 334.65-33.3 335.62-33.84L335.62-33.84Q336.5-33.5 337.67-33.5L337.67-33.5Q338.8-33.5 339.82-33.84L339.82-33.84Q340.11-33.74 340.36-33.62 340.6-33.5 340.87-33.37 341.14-33.25 341.43-33.18 341.73-33.11 342.12-33.15L342.12-33.15Q342.6-31.74 342.97-30.27 343.34-28.81 343.53-27.29L343.53-27.29Q343.63-26.66 343.61-25.93 343.58-25.2 343.68-24.56L343.68-24.56Q343.73-24.17 343.92-23.85 344.12-23.54 344.31-23.14 344.51-22.75 344.63-22.27 344.75-21.78 344.7-21.04L344.7-21.04Q345.24-19.78 345.9-18.63 346.56-17.48 347.34-16.36L347.34-16.36Q347.78-16.21 348.12-15.99 348.46-15.77 348.56-15.28L348.56-15.28Q349-15.28 349.34-15.14L349.34-15.14 350.17-14.89Q352.03-15.48 353.62-16.46 355.2-17.43 356.96-18.12L356.96-18.12Q359.11-20.21 360.67-22.78 362.23-25.34 363.8-27.88L363.8-27.88 363.8-28.96Q364.09-29.1 364.31-29.32 364.53-29.54 364.87-29.64L364.87-29.64Q364.92-30.22 365.14-30.79 365.36-31.35 365.63-31.86 365.9-32.37 366.09-32.89 366.29-33.4 366.29-33.98L366.29-33.98Q366.29-34.33 366.24-34.57L366.24-34.57Q366.97-35.3 368-35.3L368-35.3Q368.97-35.3 369.97-34.84 370.97-34.38 371.85-33.98L371.85-33.98Q372.39-32.81 372.66-31.52 372.93-30.22 373.02-28.86 373.12-27.49 373.12-26.12L373.12-26.12 373.12-22.66Q373.07-22.27 372.85-22.09 372.63-21.92 372.54-21.58L372.54-21.58 372.54-21.09Q372.54-20.85 372.49-20.61L372.49-20.61Q372.49-19.58 372.24-18.46L372.24-18.46Q372-17.04 371.63-15.6 371.27-14.16 371.27-12.7L371.27-12.7Q371.27-12.16 371.32-11.62 371.36-11.08 371.51-10.55L371.51-10.55Q371.27-10.11 371.27-9.42L371.27-9.42Q371.27-8.64 371.54-7.98 371.8-7.32 372.19-6.69L372.19-6.69Q372.88-6.69 373.56-6.74 374.25-6.79 374.98-6.79L374.98-6.79Q375.66-6.79 376.25-6.67 376.83-6.54 377.47-6.15ZM389.62-6.69L389.62-6.69Q389.38-6.3 389.04-5.98 388.7-5.66 388.4-5.32L388.4-5.32Q388.06-5.18 387.65-5.18 387.23-5.18 386.86-5.2 386.5-5.22 386.18-5.2 385.86-5.18 385.67-4.98L385.67-4.98Q385.28-5.08 385.08-5.35 384.89-5.62 384.4-5.66L384.4-5.66Q384.2-5.71 384.01-5.66L384.01-5.66Q383.28-6.49 382.67-7.42 382.06-8.35 381.52-9.18L381.52-9.18Q381.47-10.99 381.23-12.84L381.23-12.84Q381.18-13.28 381.08-13.72 380.98-14.16 380.93-14.55L380.93-14.55Q380.93-15.04 381.01-15.5 381.08-15.97 381.13-16.36L381.13-16.36Q381.32-17.77 381.57-19.14 381.81-20.51 382.01-21.92L382.01-21.92Q382.2-23.19 382.2-24.58 382.2-25.98 381.76-27.2L381.76-27.2 381.71-27.44Q381.81-27.83 381.93-28.1 382.06-28.37 382.1-28.71L382.1-28.71Q382.2-29.25 381.86-29.49L381.86-29.49Q382.01-29.88 382.35-30 382.69-30.13 382.74-30.57L382.74-30.57Q382.79-30.76 382.74-30.96L382.74-30.96Q383.13-31.1 383.54-31.23 383.96-31.35 384.35-31.25L384.35-31.25Q384.98-31.15 385.47-30.83 385.96-30.52 386.4-30.13L386.4-30.13Q387.18-27.78 387.04-25.17 386.89-22.56 386.55-19.92 386.21-17.29 386.11-14.77 386.01-12.26 386.89-10.11L386.89-10.11 386.99-10.06Q387.23-10.01 387.38-10.23 387.52-10.45 387.77-10.4L387.77-10.4Q387.96-10.3 388.01-10.3L388.01-10.3Q388.21-9.33 388.65-8.45 389.09-7.57 389.62-6.69ZM426.39-32.08L426.39-32.08Q426.29-31.49 426.12-31.08 425.95-30.66 426.05-29.98L426.05-29.98Q425.56-29.93 425.29-29.66 425.02-29.39 424.85-29.05 424.68-28.71 424.51-28.34 424.34-27.98 424.09-27.69L424.09-27.69Q424.48-25.93 424.53-24.12 424.58-22.31 424.78-20.56L424.78-20.56Q425.02-18.31 425.53-16.14 426.05-13.96 426.05-11.72L426.05-11.72Q426.05-11.04 426.02-10.45 426-9.86 426-9.23L426-9.23Q426-8.84 426.02-8.42 426.05-8.01 426.05-7.62L426.05-7.62Q426.05-6.2 425.68-4.79 425.31-3.37 425.12-1.95L425.12-1.95Q424.53-1.42 424.12-0.78 423.7-0.15 423.26 0.39 422.82 0.93 422.24 1.34 421.65 1.76 420.77 1.9L420.77 1.9Q420.63 2.39 420.21 2.64 419.8 2.88 419.5 3.32L419.5 3.32 419.41 3.32Q418.19 3.32 417.31 2.98 416.43 2.64 415.67 2.2 414.91 1.76 414.13 1.27 413.35 0.78 412.33 0.49L412.33 0.49Q410.96-0.63 409.84-1.98 408.71-3.32 407.3-4.39L407.3-4.39Q406.95-5.37 406.39-6.01 405.83-6.64 405.29-7.47L405.29-7.47Q405.05-7.81 404.93-8.11 404.81-8.4 404.61-8.79L404.61-8.79Q404.46-9.18 404.15-9.33 403.83-9.47 403.59-9.67L403.59-9.67Q403.2-11.18 402.46-12.45 401.73-13.72 400.75-14.89L400.75-14.89Q400.46-14.36 400.29-13.75 400.12-13.13 399.97-12.52 399.83-11.91 399.61-11.3 399.39-10.69 399.04-10.21L399.04-10.21 399.04-10.06Q399.04-9.81 399.24-9.77 399.44-9.72 399.44-9.47L399.44-9.47Q399.44-9.42 399.41-9.38 399.39-9.33 399.39-9.28L399.39-9.28Q399.14-9.08 399.02-8.79 398.9-8.5 398.51-8.45L398.51-8.45Q398.56-8.2 398.56-7.96L398.56-7.96 398.56-7.52Q398.56-6.1 398.24-4.69 397.92-3.27 397.92-1.81L397.92-1.81 397.92-1.17Q397.92-0.83 397.97-0.54L397.97-0.54Q398.07-0.24 398.26 0.05 398.46 0.34 398.46 0.59L398.46 0.59Q398.46 0.93 398.17 1.22L398.17 1.22Q398.51 1.46 398.95 1.76 399.39 2.05 399.75 2.42 400.12 2.78 400.36 3.2 400.61 3.61 400.61 4.1L400.61 4.1Q400.61 4.93 400.07 5.27 399.53 5.62 398.78 5.81 398.02 6.01 397.21 6.18 396.41 6.35 395.87 6.79L395.87 6.79 395.72 6.79Q395.14 6.79 394.85 6.45 394.55 6.1 393.97 6.1L393.97 6.1Q393.04 4.59 392.7 2.71 392.36 0.83 392.36-0.88L392.36-0.88Q392.36-2.98 392.72-5.08 393.09-7.18 393.6-9.23 394.11-11.28 394.72-13.31 395.33-15.33 395.87-17.38L395.87-17.38 395.92-17.53Q395.92-17.77 395.8-17.87 395.68-17.97 395.68-18.16L395.68-18.16Q395.68-18.26 395.72-18.26L395.72-18.26Q395.87-18.75 396.04-19.19 396.21-19.63 396.31-20.17L396.31-20.17Q396.6-21.53 396.73-22.97 396.85-24.41 396.87-25.83 396.9-27.25 396.97-28.69 397.04-30.13 397.29-31.54L397.29-31.54Q397.68-31.93 398.02-32.37 398.36-32.81 398.9-33.15L398.9-33.15Q399.87-33.11 400.85-32.86 401.83-32.62 402.71-32.08L402.71-32.08Q403.29-29.98 403.51-27.88 403.73-25.78 404.27-23.68L404.27-23.68 404.27-23.54Q404.27-23.29 404.54-23.32 404.81-23.34 404.95-23.14L404.95-23.14Q404.86-23 404.83-22.8 404.81-22.61 404.81-22.41L404.81-22.41 404.81-21.58Q404.9-21.19 405.05-20.75 405.2-20.31 405.69-20.21L405.69-20.21Q405.93-18.65 406.42-17.33 406.91-16.02 407.54-14.79 408.18-13.57 408.91-12.38 409.64-11.18 410.42-9.86L410.42-9.86Q411.64-8.94 412.52-7.74 413.4-6.54 414.3-5.44 415.21-4.35 416.35-3.52 417.5-2.69 419.36-2.49L419.36-2.49Q419.6-2.69 419.7-3.03L419.7-3.03 419.94-3.71Q420.09-4.05 420.26-4.32 420.43-4.59 420.77-4.74L420.77-4.74Q420.87-6.1 420.99-7.52 421.12-8.94 421.6-10.21L421.6-10.21Q421.36-10.64 421.36-11.28L421.36-11.28Q421.36-11.77 421.43-12.21 421.51-12.65 421.51-13.09L421.51-13.09Q421.51-14.01 421.12-14.6L421.12-14.6Q421.12-14.94 421.16-15.31 421.21-15.67 421.46-16.02L421.46-16.02Q421.07-16.99 420.85-18.07 420.63-19.14 420.63-20.26L420.63-20.26Q420.63-20.9 420.77-21.58L420.77-21.58Q420.48-22.31 420.38-23.29L420.38-23.29 420.19-25.29Q420.09-26.32 419.89-27.2 419.7-28.08 419.16-28.61L419.16-28.61Q419.45-29.05 419.45-29.64L419.45-29.64Q419.45-30.62 419.16-31.49 418.87-32.37 418.87-33.35L418.87-33.35Q418.87-34.03 419.16-34.72L419.16-34.72Q420.24-34.67 421.29-34.5 422.34-34.33 423.36-34.33L423.36-34.33Q423.65-33.94 424.04-33.69 424.44-33.45 424.87-33.23 425.31-33.01 425.73-32.76 426.14-32.52 426.39-32.08ZM441.82-6.69L441.82-6.69Q441.57-6.3 441.23-5.98 440.89-5.66 440.6-5.32L440.6-5.32Q440.25-5.18 439.84-5.18 439.42-5.18 439.06-5.2 438.69-5.22 438.37-5.2 438.06-5.18 437.86-4.98L437.86-4.98Q437.47-5.08 437.27-5.35 437.08-5.62 436.59-5.66L436.59-5.66Q436.4-5.71 436.2-5.66L436.2-5.66Q435.47-6.49 434.86-7.42 434.25-8.35 433.71-9.18L433.71-9.18Q433.66-10.99 433.42-12.84L433.42-12.84Q433.37-13.28 433.27-13.72 433.17-14.16 433.12-14.55L433.12-14.55Q433.12-15.04 433.2-15.5 433.27-15.97 433.32-16.36L433.32-16.36Q433.51-17.77 433.76-19.14 434-20.51 434.2-21.92L434.2-21.92Q434.39-23.19 434.39-24.58 434.39-25.98 433.95-27.2L433.95-27.2 433.91-27.44Q434-27.83 434.13-28.1 434.25-28.37 434.3-28.71L434.3-28.71Q434.39-29.25 434.05-29.49L434.05-29.49Q434.2-29.88 434.54-30 434.88-30.13 434.93-30.57L434.93-30.57Q434.98-30.76 434.93-30.96L434.93-30.96Q435.32-31.1 435.74-31.23 436.15-31.35 436.54-31.25L436.54-31.25Q437.18-31.15 437.67-30.83 438.15-30.52 438.59-30.13L438.59-30.13Q439.37-27.78 439.23-25.17 439.08-22.56 438.74-19.92 438.4-17.29 438.3-14.77 438.2-12.26 439.08-10.11L439.08-10.11 439.18-10.06Q439.42-10.01 439.57-10.23 439.72-10.45 439.96-10.4L439.96-10.4Q440.16-10.3 440.2-10.3L440.2-10.3Q440.4-9.33 440.84-8.45 441.28-7.57 441.82-6.69ZM482.83-8.79L483.07-8.79Q483.07-8.3 482.8-7.98 482.54-7.67 482.17-7.42 481.8-7.18 481.44-6.98 481.07-6.79 480.78-6.49L480.78-6.49Q480.58-6.3 480.51-6.03 480.44-5.76 480.24-5.66L480.24-5.66Q479.95-5.42 479.61-5.37 479.26-5.32 478.9-5.25 478.53-5.18 478.19-5.05 477.85-4.93 477.6-4.59L477.6-4.59Q475.31-4.35 473.09-3.96 470.87-3.56 468.52-3.56L468.52-3.56Q468.08-3.56 467.57-3.49 467.06-3.42 466.62-3.37L466.62-3.37Q465.59-3.27 464.59-3.22 463.59-3.17 462.57-3.17L462.57-3.17Q461.15-3.17 459.73-3.3 458.32-3.42 456.95-3.71L456.95-3.71Q456.61-3.96 456.17-4.1 455.73-4.25 455.27-4.39 454.8-4.54 454.41-4.74 454.02-4.93 453.82-5.32L453.82-5.32Q453.09-5.37 452.53-5.62 451.97-5.86 451.51-6.18 451.04-6.49 450.55-6.84 450.07-7.18 449.43-7.42L449.43-7.42Q448.94-8.11 448.43-8.76 447.92-9.42 447.18-9.86L447.18-9.86Q447.04-10.79 446.72-11.72 446.4-12.65 446.09-13.55 445.77-14.45 445.55-15.38 445.33-16.31 445.33-17.29L445.33-17.29Q445.33-17.97 445.52-18.95 445.72-19.92 446.04-20.92 446.35-21.92 446.79-22.8 447.23-23.68 447.67-24.22L447.67-24.22Q447.82-24.37 448.01-24.46 448.21-24.56 448.36-24.76L448.36-24.76Q448.8-25.24 449.28-25.56 449.77-25.88 450.31-26.32L450.31-26.32Q450.5-26.51 450.63-26.76 450.75-27 450.99-27.2L450.99-27.2Q451.14-27.29 451.41-27.25 451.68-27.2 451.87-27.34L451.87-27.34Q452.07-27.49 452.07-27.69 452.07-27.88 452.21-28.03L452.21-28.03Q452.26-28.08 452.51-28.05 452.75-28.03 452.8-28.03L452.8-28.03Q453.14-28.03 453.58-28.49 454.02-28.96 454.31-29.1L454.31-29.1Q454.66-29.3 455-29.37 455.34-29.44 455.73-29.64L455.73-29.64Q456.27-29.93 456.78-30.1 457.29-30.27 457.83-30.52L457.83-30.52Q458.12-30.62 458.37-30.86 458.61-31.1 458.85-31.2L458.85-31.2Q459.29-31.35 459.81-31.42 460.32-31.49 460.78-31.57 461.25-31.64 461.71-31.76 462.17-31.88 462.57-32.23L462.57-32.23 462.96-32.23Q463.83-32.23 464.66-32.47 465.49-32.71 466.37-32.71L466.37-32.71Q466.62-32.71 467.11-32.62L467.11-32.62Q467.5-32.86 467.99-32.86L467.99-32.86Q468.82-32.86 469.65-32.45 470.48-32.03 471.35-32.03L471.35-32.03 471.65-32.03Q471.84-32.03 472.04-32.08L472.04-32.08Q472.57-31.54 473.33-31.49 474.09-31.45 474.63-31.05L474.63-31.05Q474.97-30.76 475.19-30.37 475.41-29.98 475.55-29.54L475.55-29.54 475.85-28.66Q475.99-28.22 476.24-27.88L476.24-27.88Q475.99-26.12 474.8-25.07 473.6-24.02 471.79-24.02L471.79-24.02Q471.11-24.02 470.65-24.19 470.18-24.37 469.82-24.56 469.45-24.76 469.06-24.95 468.67-25.15 468.18-25.24L468.18-25.24Q468.72-26.22 468.86-27.34L468.86-27.34Q468.33-27.59 467.79-27.69 467.25-27.78 466.76-28.03L466.76-28.03Q465.45-27.69 464.2-27.56 462.96-27.44 461.88-26.51L461.88-26.51Q461.64-26.56 461.37-26.61 461.1-26.66 460.86-26.66L460.86-26.66Q460.56-26.66 459.68-26.25 458.81-25.83 457.8-25.29 456.8-24.76 455.9-24.22 455-23.68 454.66-23.49L454.66-23.49Q454.26-23.24 453.97-22.9 453.68-22.56 453.39-22.19 453.09-21.83 452.8-21.51 452.51-21.19 452.07-21.04L452.07-21.04Q451.97-20.51 451.73-20.12 451.48-19.73 451.19-19.29L451.19-19.29Q451.14-18.41 451.02-17.53 450.9-16.65 450.9-15.77L450.9-15.77 450.9-15.14Q450.9-14.84 450.99-14.6L450.99-14.6Q451.48-13.96 451.8-13.18 452.12-12.4 452.9-12.11L452.9-12.11Q452.95-11.91 452.87-11.87 452.8-11.82 452.75-11.62L452.75-11.62Q453.04-11.08 453.51-10.77 453.97-10.45 454.46-10.13 454.95-9.81 455.39-9.47 455.83-9.13 456.07-8.59L456.07-8.59Q456.8-8.59 457.46-8.35 458.12-8.11 458.73-7.81 459.34-7.52 459.9-7.28 460.47-7.03 461.05-7.03L461.05-7.03Q461.59-7.03 462.03-7.18L462.03-7.18Q463.3-6.79 464.59-6.62 465.89-6.45 467.2-6.45L467.2-6.45Q468.82-6.45 470.43-6.64 472.04-6.84 473.65-6.98L473.65-6.98Q474.24-7.08 474.77-7.08 475.31-7.08 475.85-7.18L475.85-7.18Q476.53-7.28 477.14-7.81 477.75-8.35 478.34-8.59L478.34-8.59Q478.87-8.25 479.61-8.25L479.61-8.25Q480.44-8.25 481.22-8.52 482-8.79 482.83-8.79L482.83-8.79Z" opacity="1" transform="matrix(1,0,0,1,0,0)" fill="#50a060" class="wordmark-text-0" data-fill-palette-color="primary" id="text-0"></path></svg></g></svg></g><g transform="matrix(1,0,0,1,0,33.24777153556528)"><svg viewBox="0 0 192 17.930615650758117" height="17.930615650758117" width="192"><g transform="matrix(1,0,0,1,0,0)"><svg width="192" viewBox="3.5 -35.349998474121094 480.7900085449219 44.89999771118164" height="17.930615650758117" data-palette-color="#c9efc7"><path d="M23.25-33.7L23.25-28.55 9.85-28.55 9.85-18.6 21.55-18.6 21.55-13.45 9.85-13.45 9.85 0 3.5 0 3.5-33.7 23.25-33.7ZM45.63-11.75L45.63-25.35 51.68-25.35 51.68 0 45.63 0 45.63-4.15Q43.63 0.25 37.83 0.25L37.83 0.25Q33.98 0.25 31.83-1.95 29.68-4.15 29.68-8.2L29.68-8.2 29.68-25.35 35.68-25.35 35.68-9.6Q35.68-7.2 36.86-5.95 38.03-4.7 40.08-4.7L40.08-4.7Q42.68-4.7 44.16-6.45 45.63-8.2 45.63-11.75L45.63-11.75ZM66.16 0L60.16 0 60.16-35.35 66.16-35.35 66.16 0ZM80.89 0L74.89 0 74.89-35.35 80.89-35.35 80.89 0ZM122.5-32.3L122.5-32.3 122.5-26.2Q118.75-28.45 114.5-28.45L114.5-28.45Q112.15-28.45 110.83-27.4 109.5-26.35 109.5-24.7 109.5-23.05 110.93-21.98 112.35-20.9 115.2-19.6L115.2-19.6Q117.2-18.7 118.45-18.03 119.7-17.35 121.18-16.15 122.65-14.95 123.38-13.28 124.1-11.6 124.1-9.45L124.1-9.45Q124.1-4.95 120.88-2.27 117.65 0.4 112.4 0.4L112.4 0.4Q106.7 0.4 102.95-1.75L102.95-1.75 102.95-8.2Q107.25-5.1 112.35-5.1L112.35-5.1Q114.65-5.1 116.05-6.23 117.45-7.35 117.45-9.25L117.45-9.25Q117.45-10.15 117.1-10.85 116.75-11.55 115.68-12.25 114.6-12.95 114.03-13.25 113.45-13.55 111.65-14.35L111.65-14.35Q111.15-14.6 110.9-14.7L110.9-14.7Q109.05-15.55 107.9-16.23 106.75-16.9 105.4-18.05 104.05-19.2 103.38-20.8 102.7-22.4 102.7-24.45L102.7-24.45Q102.7-28.75 105.88-31.35 109.05-33.95 114.3-33.95L114.3-33.95Q119.05-33.95 122.5-32.3ZM144.74-20.85L138.44-20.85 138.44-7.95Q138.44-6.35 139.29-5.53 140.14-4.7 141.64-4.7L141.64-4.7Q143.54-4.7 145.14-5.75L145.14-5.75 145.14-0.6Q143.39 0.25 140.64 0.25L140.64 0.25Q132.44 0.25 132.44-8.05L132.44-8.05 132.44-20.85 128.64-20.85 128.64-25.35 132.44-25.35 132.44-31.45 138.44-31.45 138.44-25.35 144.74-25.35 144.74-20.85ZM164.77-8.5L164.77-10.9 161.67-10.9Q159.32-10.9 158.07-9.93 156.82-8.95 156.82-7.45L156.82-7.45Q156.82-4.25 160.52-4.25L160.52-4.25Q162.52-4.25 163.64-5.43 164.77-6.6 164.77-8.5L164.77-8.5ZM152.47-18.5L152.47-18.5 152.47-24.05Q155.32-25.8 160.67-25.8L160.67-25.8Q170.97-25.8 170.97-16.2L170.97-16.2 170.97 0 165.02 0 165.02-3.05Q163.27 0.2 158.42 0.2L158.42 0.2Q154.82 0.2 152.69-1.9 150.57-4 150.57-7.2L150.57-7.2Q150.57-10.8 153.27-12.85 155.97-14.9 161.07-14.9L161.07-14.9 164.77-14.9 164.77-16.45Q164.77-18.55 163.67-19.65 162.57-20.75 159.92-20.75L159.92-20.75Q155.87-20.75 152.47-18.5ZM183.7-12.6L183.7-12.6Q183.8-9 185.87-6.8 187.95-4.6 191.5-4.6L191.5-4.6Q194.6-4.6 197.25-6.3L197.25-6.3 197.25-1.1Q194.6 0.45 190.65 0.45L190.65 0.45Q184.8 0.45 181.17-3.25 177.55-6.95 177.55-12.6L177.55-12.6Q177.6-18.15 181.17-21.95 184.75-25.75 190.95-25.75L190.95-25.75Q194.65-25.75 197.25-24.35L197.25-24.35 197.25-19.05Q194.75-20.65 191.55-20.65L191.55-20.65Q188.05-20.65 185.9-18.45 183.75-16.25 183.7-12.6ZM216.78-13.25L226.28 0 219.23 0 210.13-13.1 210.13 0 204.13 0 204.13-34.75 210.13-34.75 210.13-13.45 219.08-25.35 226.08-25.35 216.78-13.25ZM252.79-28.4L252.79-5.25 257.24-5.25Q262.54-5.25 265.29-8.53 268.04-11.8 268.04-17.3L268.04-17.3Q268.04-22.15 265.11-25.28 262.19-28.4 257.14-28.4L257.14-28.4 252.79-28.4ZM246.34 0L246.34-33.7 257.34-33.7Q264.89-33.7 269.69-29.05 274.49-24.4 274.49-17.3L274.49-17.3Q274.49-9.55 269.84-4.78 265.19 0 257.34 0L257.34 0 246.34 0ZM286.17-14.75L296.82-14.75 296.82-15.5Q296.72-17.95 295.5-19.43 294.27-20.9 291.92-20.9L291.92-20.9Q289.77-20.9 288.2-19.33 286.62-17.75 286.17-14.75L286.17-14.75ZM300.92-6.6L300.92-6.6 300.92-1.4Q298.27 0.25 293.27 0.25L293.27 0.25Q287.22 0.25 283.72-3.35 280.22-6.95 280.22-12.65L280.22-12.65Q280.22-18.7 283.52-22.15 286.82-25.6 291.77-25.6 296.72-25.6 299.62-22.6 302.52-19.6 302.52-13.85L302.52-13.85Q302.52-12.45 302.17-10.25L302.17-10.25 286.27-10.25Q286.92-7.5 289-6.05 291.07-4.6 294.17-4.6L294.17-4.6Q298.17-4.6 300.92-6.6ZM322.8 0L316.3 0 307.15-25.35 313.45-25.35 316.8-14.6Q317.8-11.45 318.5-8.97 319.2-6.5 319.4-5.6L319.4-5.6 319.55-4.7Q320.05-7.5 322.4-14.6L322.4-14.6 325.9-25.35 332.1-25.35 322.8 0ZM342.28-14.75L352.93-14.75 352.93-15.5Q352.83-17.95 351.61-19.43 350.38-20.9 348.03-20.9L348.03-20.9Q345.88-20.9 344.31-19.33 342.73-17.75 342.28-14.75L342.28-14.75ZM357.03-6.6L357.03-6.6 357.03-1.4Q354.38 0.25 349.38 0.25L349.38 0.25Q343.33 0.25 339.83-3.35 336.33-6.95 336.33-12.65L336.33-12.65Q336.33-18.7 339.63-22.15 342.93-25.6 347.88-25.6 352.83-25.6 355.73-22.6 358.63-19.6 358.63-13.85L358.63-13.85Q358.63-12.45 358.28-10.25L358.28-10.25 342.38-10.25Q343.03-7.5 345.11-6.05 347.18-4.6 350.28-4.6L350.28-4.6Q354.28-4.6 357.03-6.6ZM372.11 0L366.11 0 366.11-35.35 372.11-35.35 372.11 0ZM391.44 0.4L391.44 0.4Q385.69 0.4 382.47-3.2 379.24-6.8 379.24-12.4L379.24-12.4Q379.24-18.2 382.59-21.98 385.94-25.75 391.44-25.75L391.44-25.75Q397.29-25.75 400.49-22.08 403.69-18.4 403.69-12.75L403.69-12.75Q403.69-7 400.47-3.3 397.24 0.4 391.44 0.4ZM391.44-20.85L391.44-20.85Q388.59-20.85 387.07-18.5 385.54-16.15 385.54-12.6L385.54-12.6Q385.54-9.1 387.09-6.75 388.64-4.4 391.49-4.4L391.49-4.4Q394.44-4.4 395.94-6.7 397.44-9 397.44-12.55L397.44-12.55Q397.44-16.2 395.99-18.53 394.54-20.85 391.44-20.85ZM422.87-4.8L422.87-4.8Q425.57-4.8 427.27-6.88 428.97-8.95 428.97-12.7 428.97-16.45 427.27-18.53 425.57-20.6 422.97-20.6 420.37-20.6 418.47-18.65 416.57-16.7 416.57-12.85 416.57-9 418.42-6.9 420.27-4.8 422.87-4.8ZM410.57-25.35L416.57-25.35 416.57-21.45Q419.27-25.7 424.32-25.7L424.32-25.7Q429.27-25.7 432.2-22.15 435.12-18.6 435.12-12.8L435.12-12.8Q435.12-7.1 432.2-3.38 429.27 0.35 424.27 0.35L424.27 0.35Q419.17 0.35 416.57-3.8L416.57-3.8 416.57 9.55 410.57 9.55 410.57-25.35ZM446.61-14.75L457.26-14.75 457.26-15.5Q457.16-17.95 455.93-19.43 454.71-20.9 452.36-20.9L452.36-20.9Q450.21-20.9 448.63-19.33 447.06-17.75 446.61-14.75L446.61-14.75ZM461.36-6.6L461.36-6.6 461.36-1.4Q458.71 0.25 453.71 0.25L453.71 0.25Q447.66 0.25 444.16-3.35 440.66-6.95 440.66-12.65L440.66-12.65Q440.66-18.7 443.96-22.15 447.26-25.6 452.21-25.6 457.16-25.6 460.06-22.6 462.96-19.6 462.96-13.85L462.96-13.85Q462.96-12.45 462.61-10.25L462.61-10.25 446.71-10.25Q447.36-7.5 449.43-6.05 451.51-4.6 454.61-4.6L454.61-4.6Q458.61-4.6 461.36-6.6ZM470.19-25.35L476.19-25.35 476.19-20.85Q477.94-25.55 482.59-25.55L482.59-25.55Q483.64-25.55 484.29-25.4L484.29-25.4 484.29-19.6Q483.14-20.1 481.74-20.1L481.74-20.1Q479.29-20.1 477.74-18.1 476.19-16.1 476.19-13.1L476.19-13.1 476.19 0 470.14 0 470.19-25.35Z" opacity="1" transform="matrix(1,0,0,1,0,0)" fill="#c9efc7" class="slogan-text-1" data-fill-palette-color="secondary" id="text-1"></path></svg></g></svg></g></svg></g></svg></g><g></g></svg></g></svg></g></svg></g></svg></g><defs></defs></svg><rect width="320" height="360" fill="none" stroke="none" visibility="hidden"></rect></g></svg></g></svg>